<?xml version="1.0" encoding="UTF-8" standalone="no"?>
<svg width="456" height="456" viewBox="0 0 456 456" version="1.1" xmlns="http://www.w3.org/2000/svg">
    <rect x="0" y="0" width="456" height="456" fill="#1A1A2E" />
    <g transform="translate(0,0) scale(7.6)">
        <path d="M27.1051 46.5852C27.0329 47.0071 26.8362 47.398 26.5396 47.7082C26.2431 48.0185 25.8602 48.2342 25.4394 48.328C25.0185 48.4218 24.5788 48.3895 24.1757 48.2352C23.7727 48.0809 23.4246 47.8115 23.1755 47.4611C22.9263 47.1108 22.7874 46.6953 22.7763 46.2672C22.7652 45.8392 22.8823 45.4178 23.113 45.0566C23.3436 44.6953 23.6773 44.4105 24.0719 44.238C24.4664 44.0656 24.904 44.0133 25.3292 44.0879C25.8972 44.1875 26.403 44.5062 26.7358 44.9742C27.0686 45.4422 27.2014 46.0215 27.1051 46.5852ZM21.9289 48.7755C21.6641 48.729 21.3916 48.7615 21.1458 48.8687C20.9 48.976 20.692 49.1533 20.5482 49.3781C20.4043 49.6029 20.3309 49.8652 20.3374 50.1318C20.3439 50.3984 20.4299 50.6573 20.5846 50.8759C20.7393 51.0944 20.9557 51.2627 21.2064 51.3595C21.4572 51.4562 21.731 51.4772 21.9933 51.4196C22.2555 51.362 22.4945 51.2285 22.6799 51.036C22.8653 50.8435 22.9889 50.6005 23.0349 50.338C23.0673 50.1611 23.0634 49.9795 23.0235 49.804C22.9836 49.6285 22.9085 49.4627 22.8027 49.3164C22.6969 49.1701 22.5625 49.0464 22.4076 48.9526C22.2526 48.8588 22.0804 48.7969 21.901 48.7706L21.9289 48.7755ZM32.609 46.2961C32.1695 46.2171 31.7165 46.2693 31.3076 46.446C30.8986 46.6227 30.5521 46.916 30.3119 47.2887C30.0717 47.6614 29.9486 48.0968 29.9582 48.5397C29.9678 48.9826 30.1097 49.4131 30.3659 49.7767C30.6221 50.1402 30.9811 50.4204 31.3974 50.5819C31.8136 50.7433 32.2685 50.7787 32.7043 50.6835C33.1401 50.5883 33.5372 50.3668 33.8454 50.0471C34.1536 49.7275 34.359 49.324 34.4355 48.8878C34.4878 48.5967 34.4812 48.298 34.416 48.0092C34.3508 47.7204 34.2283 47.4471 34.0557 47.2055C33.8831 46.9638 33.6639 46.7584 33.4107 46.6015C33.1575 46.4445 32.8755 46.339 32.5812 46.2912L32.609 46.2961ZM38.0134 18.5433C37.5738 18.4643 37.1209 18.5165 36.7119 18.6932C36.303 18.8699 35.9565 19.1632 35.7163 19.5359C35.4761 19.9087 35.353 20.3441 35.3626 20.787C35.3722 21.2299 35.5141 21.6604 35.7703 22.0239C36.0265 22.3874 36.3854 22.6677 36.8017 22.8291C37.218 22.9905 37.6728 23.0259 38.1086 22.9307C38.5444 22.8355 38.9416 22.614 39.2498 22.2944C39.558 21.9747 39.7633 21.5712 39.8398 21.135C39.8909 20.8441 39.8833 20.5458 39.8176 20.2575C39.7518 19.9691 39.6292 19.6964 39.4568 19.455C39.2845 19.2136 39.0657 19.0083 38.8131 18.851C38.5606 18.6937 38.2793 18.5874 37.9855 18.5384L38.0134 18.5433ZM29.0402 51.1251C28.766 51.0676 28.481 51.0925 28.2216 51.1968C27.9623 51.301 27.7405 51.4798 27.5846 51.7102C27.4287 51.9407 27.3459 52.2122 27.3467 52.4901C27.3475 52.768 27.432 53.0395 27.5893 53.2699C27.7465 53.5003 27.9694 53.6791 28.2294 53.7833C28.4893 53.8875 28.7745 53.9124 29.0484 53.8548C29.3222 53.7972 29.5722 53.6597 29.7664 53.46C29.9606 53.2602 30.09 53.0074 30.1382 52.7337C30.2009 52.3773 30.1214 52.0102 29.9165 51.71C29.7117 51.4099 29.3974 51.2001 29.0402 51.1251ZM14.8459 45.718C14.4199 45.6433 13.9815 45.6959 13.5865 45.8691C13.1914 46.0423 12.8575 46.3283 12.6273 46.6908C12.397 47.0532 12.2808 47.4756 12.2934 47.9045C12.3059 48.3333 12.4467 48.7491 12.6979 49.099C12.949 49.4489 13.2991 49.7171 13.7037 49.8695C14.1083 50.0219 14.5491 50.0517 14.9701 49.955C15.391 49.8583 15.7732 49.6395 16.0678 49.3264C16.3625 49.0134 16.5565 48.6202 16.625 48.1968C16.7159 47.6355 16.5802 47.0606 16.2472 46.5966C15.9142 46.1327 15.4107 45.817 14.8459 45.718ZM11.3805 50.3941C11.1157 50.3477 10.8432 50.3801 10.5974 50.4874C10.3517 50.5947 10.1437 50.7719 9.9998 50.9968C9.85592 51.2216 9.78258 51.4839 9.78907 51.7505C9.79556 52.0171 9.88159 52.276 10.0363 52.4945C10.191 52.7131 10.4073 52.8814 10.6581 52.9781C10.9088 53.0749 11.1826 53.0958 11.4449 53.0383C11.7072 52.9807 11.9461 52.8472 12.1316 52.6547C12.317 52.4621 12.4405 52.2192 12.4866 51.9566C12.5483 51.6045 12.4665 51.2421 12.2591 50.949C12.0517 50.656 11.7356 50.4564 11.3805 50.3941ZM12.7834 37.4778C12.3586 37.4033 11.9215 37.4554 11.5272 37.6274C11.133 37.7995 10.7993 38.0839 10.5685 38.4445C10.3377 38.8052 10.22 39.2259 10.2304 39.6536C10.2409 40.0813 10.3789 40.4967 10.627 40.8472C10.8751 41.1977 11.2223 41.4677 11.6245 41.623C12.0267 41.7782 12.466 41.8118 12.8867 41.7194C13.3074 41.6271 13.6908 41.4129 13.9882 41.1041C14.2856 40.7952 14.4838 40.4055 14.5577 39.9843C14.6583 39.4255 14.5322 38.8493 14.2069 38.381C13.8815 37.9128 13.3833 37.5905 12.8206 37.4843L12.7834 37.4778ZM9.39085 42.1762C9.12604 42.1298 8.85352 42.1622 8.60775 42.2695C8.36198 42.3768 8.154 42.554 8.01011 42.7789C7.86622 43.0037 7.79288 43.266 7.79937 43.5326C7.80586 43.7992 7.89189 44.0581 8.04658 44.2766C8.20126 44.4952 8.41765 44.6634 8.66838 44.7602C8.91912 44.857 9.19295 44.8779 9.45522 44.8204C9.7175 44.7628 9.95646 44.6293 10.1419 44.4368C10.3273 44.2442 10.4508 44.0013 10.4969 43.7387C10.5288 43.5642 10.5254 43.3851 10.4869 43.2118C10.4484 43.0384 10.3755 42.8743 10.2726 42.7289C10.1697 42.5835 10.0388 42.4598 9.8874 42.3649C9.73602 42.27 9.56723 42.2059 9.39085 42.1762ZM12.0999 27.5503C11.6751 27.4758 11.2379 27.5278 10.8437 27.6999C10.4494 27.872 10.1158 28.1563 9.88498 28.517C9.65416 28.8776 9.53651 29.2984 9.54693 29.7261C9.55734 30.1538 9.69534 30.5691 9.94348 30.9197C10.1916 31.2702 10.5387 31.5402 10.941 31.6954C11.3432 31.8507 11.7824 31.8843 12.2032 31.7919C12.6239 31.6995 13.0072 31.4854 13.3047 31.1765C13.6021 30.8677 13.8003 30.478 13.8742 30.0568C13.9246 29.7765 13.9187 29.489 13.8568 29.2107C13.7949 28.9324 13.6783 28.6688 13.5136 28.4351C13.3489 28.2013 13.1394 28.002 12.897 27.8486C12.6547 27.6952 12.3844 27.5906 12.1015 27.541L12.0999 27.5503ZM8.66084 32.2405C8.39379 32.1937 8.11897 32.2266 7.87123 32.335C7.62348 32.4433 7.41397 32.6224 7.26927 32.8494C7.12457 33.0763 7.05119 33.341 7.05844 33.6099C7.06569 33.8787 7.15324 34.1396 7.30999 34.3594C7.46675 34.5792 7.68564 34.7481 7.93891 34.8446C8.19218 34.9411 8.46842 34.9609 8.7326 34.9015C8.99678 34.8421 9.237 34.7061 9.42279 34.5108C9.60858 34.3156 9.73158 34.0698 9.77618 33.8047C9.80827 33.629 9.80483 33.4486 9.76606 33.2741C9.72729 33.0995 9.65396 32.9342 9.55033 32.7878C9.44671 32.6415 9.31486 32.5169 9.16244 32.4213C9.01002 32.3258 8.84007 32.2612 8.66246 32.2313L8.66084 32.2405ZM53.469 23.535C53.0199 26.2505 51.8522 28.7971 50.0853 30.9149L38.0059 45.1424C37.619 45.5716 37.0789 45.8349 36.4992 45.8767C35.9196 45.9186 35.3455 45.7358 34.8977 45.3669C34.4499 44.9979 34.1632 44.4714 34.0979 43.8982C34.0325 43.325 34.1937 42.7496 34.5475 42.2929L37.8584 38.388C37.9785 38.2621 38.0714 38.113 38.1312 37.9501C38.191 37.7871 38.2165 37.6136 38.2063 37.4402C38.196 37.2669 38.1501 37.0974 38.0714 36.9421C37.9927 36.7868 37.8829 36.649 37.7487 36.5372C37.6145 36.4254 37.4588 36.3419 37.291 36.2919C37.1233 36.2419 36.9471 36.2264 36.7734 36.2465C36.5996 36.2665 36.4319 36.3215 36.2806 36.4083C36.1292 36.495 35.9974 36.6116 35.8933 36.7509L30.4515 43.1331C30.2055 43.4232 29.8873 43.6444 29.5282 43.7748C29.1692 43.9051 28.7818 43.9402 28.4044 43.8765C28.0158 43.8252 27.6486 43.6687 27.3432 43.4242C26.9015 43.053 26.6252 42.5239 26.5746 41.9524C26.524 41.3809 26.7032 40.8135 27.0732 40.3738L29.4907 37.5191L30.3857 36.4596C30.5803 36.1993 30.6672 35.8747 30.6286 35.5523C30.5899 35.2299 30.4287 34.934 30.1778 34.7249C29.9269 34.5159 29.6053 34.4096 29.2787 34.4277C28.9521 34.4459 28.6452 34.587 28.4206 34.8225L19.9537 44.8462C19.7074 45.1351 19.3891 45.3549 19.0302 45.4837C18.6714 45.6125 18.2846 45.6458 17.9082 45.5803C17.5299 45.5129 17.1755 45.3492 16.8797 45.1053C16.4792 44.7731 16.2115 44.3099 16.1252 43.7996C16.0388 43.2893 16.1396 42.7657 16.4092 42.3238L24.9836 32.2334C25.1783 31.9731 25.2651 31.6485 25.2265 31.3261C25.1878 31.0037 25.0266 30.7077 24.7757 30.4987C24.5248 30.2897 24.2032 30.1834 23.8766 30.2015C23.55 30.2196 23.2431 30.3608 23.0185 30.5962L17.9386 36.5003C17.7614 36.7402 17.5364 36.9412 17.2774 37.091C17.0184 37.2407 16.731 37.3359 16.433 37.3707C16.135 37.4055 15.8328 37.3791 15.5452 37.2932C15.2575 37.2073 14.9906 37.0637 14.761 36.8712C14.5314 36.6788 14.3439 36.4418 14.2103 36.1747C14.0767 35.9077 13.9998 35.6164 13.9843 35.319C13.9689 35.0216 14.0152 34.7244 14.1205 34.4458C14.2257 34.1672 14.3876 33.9133 14.5962 33.6997L21.4969 25.5016C21.6055 25.374 21.6877 25.2263 21.7387 25.0671C21.7896 24.9078 21.8085 24.7401 21.7941 24.5734C21.7797 24.4068 21.7324 24.2444 21.6549 24.0957C21.5773 23.947 21.471 23.8149 21.3421 23.7068C21.0818 23.4884 20.7449 23.3814 20.4057 23.4093C20.0665 23.4371 19.7528 23.5975 19.5335 23.8552L17.5465 26.1677C17.3015 26.3938 17.0072 26.561 16.6864 26.6563C16.3657 26.7516 16.0269 26.7726 15.6962 26.7175C15.3143 26.6477 14.9572 26.4803 14.6601 26.2316C14.4389 26.0474 14.2565 25.8216 14.1233 25.5674C13.9901 25.3132 13.9088 25.0355 13.884 24.7504C13.8592 24.4652 13.8914 24.1781 13.9788 23.9057C14.0662 23.6332 14.2071 23.3807 14.3933 23.1627C14.3933 23.1627 25.5744 10.0132 25.6743 9.93569C27.5366 8.04407 29.843 6.64036 32.3881 5.84973C34.9331 5.05909 37.6376 4.90609 40.2604 5.40437C48.768 6.89656 55.0926 14.2782 53.469 23.535ZM49.2013 22.7864C50.2686 16.7013 46.2325 10.8615 39.5101 9.68241C32.7876 8.50334 26.9986 12.6579 25.9378 18.7062C25.5895 21.6795 26.4016 24.6756 28.2076 27.0799C30.0135 29.4841 32.6765 31.1142 35.65 31.6358C38.6235 32.1573 41.6822 31.5307 44.1986 29.8846C46.715 28.2385 48.4983 25.6976 49.1827 22.7832L49.2013 22.7864Z" fill="#FFCB05"/>
    </g>
</svg>
