<?xml version="1.0" encoding="UTF-8"?>
<svg xmlns="http://www.w3.org/2000/svg" xmlns:xlink="http://www.w3.org/1999/xlink" width="612pt" height="792pt" viewBox="0 0 612 792">
<defs>
<clipPath id="clip-0">
<path clip-rule="nonzero" d="M 162 136 L 231 136 L 231 202 L 162 202 Z M 162 136 "/>
</clipPath>
<clipPath id="clip-1">
<path clip-rule="nonzero" d="M 192.175781 136.734375 C 191.960938 136.894531 191.816406 137.125 191.777344 137.390625 C 191.734375 137.652344 191.800781 137.914062 191.957031 138.132812 C 192.367188 138.695312 192.9375 138.714844 193.382812 138.390625 C 193.585938 138.242188 193.71875 138.015625 193.761719 137.75 C 193.804688 137.472656 193.738281 137.179688 193.570312 136.953125 C 193.414062 136.738281 193.183594 136.597656 192.921875 136.554688 C 192.867188 136.546875 192.816406 136.542969 192.761719 136.542969 C 192.550781 136.542969 192.347656 136.609375 192.175781 136.734375 M 195.964844 140.273438 C 195.644531 140.507812 195.429688 140.855469 195.367188 141.253906 C 195.304688 141.648438 195.402344 142.042969 195.636719 142.367188 L 195.714844 142.472656 C 196.175781 143.109375 197.113281 143.230469 197.769531 142.75 C 198.078125 142.523438 198.28125 142.183594 198.34375 141.789062 C 198.410156 141.371094 198.308594 140.9375 198.0625 140.601562 C 197.824219 140.277344 197.480469 140.066406 197.085938 140.003906 C 197.003906 139.992188 196.925781 139.984375 196.847656 139.984375 C 196.53125 139.984375 196.226562 140.085938 195.964844 140.273438 M 182.351562 143.824219 C 181.875 144.296875 181.613281 144.921875 181.609375 145.589844 C 181.609375 146.257812 181.867188 146.886719 182.335938 147.359375 L 182.589844 147.613281 C 183.527344 148.5625 185.175781 148.570312 186.125 147.628906 C 186.597656 147.15625 186.859375 146.53125 186.863281 145.863281 C 186.867188 145.195312 186.609375 144.566406 186.136719 144.09375 L 185.886719 143.839844 C 185.398438 143.347656 184.753906 143.101562 184.109375 143.101562 C 183.476562 143.101562 182.835938 143.34375 182.351562 143.824219 M 200.089844 144.402344 C 199.613281 144.871094 199.351562 145.496094 199.351562 146.164062 C 199.347656 146.832031 199.605469 147.460938 200.074219 147.9375 L 200.328125 148.191406 C 201.265625 149.136719 202.910156 149.144531 203.863281 148.203125 C 204.335938 147.734375 204.597656 147.105469 204.601562 146.4375 C 204.605469 145.769531 204.347656 145.140625 203.875 144.667969 L 203.625 144.414062 C 203.136719 143.921875 202.492188 143.675781 201.847656 143.675781 C 201.214844 143.675781 200.574219 143.917969 200.089844 144.402344 M 168.695312 148.050781 C 168.222656 148.519531 167.960938 149.144531 167.957031 149.8125 C 167.953125 150.480469 168.210938 151.109375 168.683594 151.585938 L 168.933594 151.839844 C 169.871094 152.785156 171.519531 152.792969 172.46875 151.851562 C 172.941406 151.382812 173.203125 150.753906 173.207031 150.089844 C 173.210938 149.421875 172.953125 148.789062 172.480469 148.316406 L 172.230469 148.0625 C 171.742188 147.570312 171.101562 147.324219 170.457031 147.324219 C 169.820312 147.324219 169.183594 147.566406 168.695312 148.050781 M 188.207031 149.699219 C 186.851562 151.054688 186.84375 153.269531 188.195312 154.632812 L 194.054688 160.492188 C 194.53125 160.96875 194.792969 161.597656 194.792969 162.269531 C 194.792969 162.941406 194.53125 163.574219 194.054688 164.046875 C 193.109375 164.996094 191.453125 165 190.5 164.046875 L 180.066406 153.640625 C 178.699219 152.273438 176.480469 152.273438 175.117188 153.640625 C 173.75 155.003906 173.75 157.222656 175.117188 158.589844 L 189.644531 173.121094 L 189.640625 173.136719 L 191.230469 174.726562 C 191.703125 175.203125 191.964844 175.835938 191.964844 176.503906 C 191.964844 177.175781 191.703125 177.808594 191.230469 178.28125 C 190.28125 179.230469 188.625 179.234375 187.675781 178.28125 L 184.449219 175.058594 C 183.8125 174.53125 183.03125 174.265625 182.253906 174.265625 C 181.363281 174.265625 180.46875 174.609375 179.789062 175.289062 C 179.125 175.953125 178.761719 176.832031 178.761719 177.765625 C 178.761719 178.699219 179.125 179.578125 179.789062 180.238281 L 194.773438 195.226562 C 194.828125 195.28125 194.855469 195.300781 194.882812 195.320312 C 194.925781 195.351562 194.964844 195.382812 195.003906 195.417969 C 199.046875 199.261719 204.308594 201.371094 209.839844 201.371094 C 215.601562 201.371094 221.011719 199.128906 225.078125 195.0625 C 225.742188 194.398438 226.105469 193.523438 226.105469 192.585938 C 226.105469 191.652344 225.742188 190.773438 225.078125 190.113281 C 223.757812 188.789062 221.453125 188.789062 220.132812 190.113281 C 217.382812 192.859375 213.730469 194.371094 209.847656 194.371094 C 206.011719 194.367188 202.394531 192.886719 199.652344 190.195312 C 194.09375 184.515625 194.140625 175.335938 199.746094 169.730469 C 205.363281 164.113281 214.550781 164.066406 220.222656 169.628906 C 221.964844 171.40625 223.226562 173.597656 223.878906 175.976562 C 224.125 176.882812 224.710938 177.632812 225.527344 178.097656 C 226.339844 178.558594 227.277344 178.675781 228.171875 178.429688 C 229.078125 178.183594 229.828125 177.597656 230.292969 176.789062 C 230.753906 175.976562 230.875 175.03125 230.628906 174.132812 L 230.628906 174.128906 C 229.691406 170.703125 227.890625 167.523438 225.414062 164.933594 C 225.359375 164.867188 225.316406 164.824219 225.273438 164.777344 L 225.167969 164.675781 L 225.425781 164.226562 L 225.070312 164.578125 L 210.765625 150.304688 C 210.101562 149.644531 209.230469 149.242188 208.289062 149.28125 C 207.351562 149.28125 206.472656 149.648438 205.816406 150.308594 C 204.550781 151.574219 204.457031 153.585938 205.597656 154.980469 L 205.675781 155.078125 L 208.15625 157.558594 C 208.632812 158.035156 208.894531 158.664062 208.894531 159.339844 C 208.894531 160.007812 208.632812 160.640625 208.15625 161.113281 C 207.207031 162.066406 205.550781 162.066406 204.601562 161.113281 L 193.15625 149.699219 C 192.496094 149.035156 191.589844 148.707031 190.683594 148.707031 C 189.773438 148.707031 188.867188 149.035156 188.207031 149.699219 M 163.308594 159.121094 C 163.09375 159.28125 162.949219 159.511719 162.910156 159.777344 C 162.867188 160.039062 162.933594 160.304688 163.089844 160.519531 C 163.5 161.082031 164.070312 161.101562 164.515625 160.777344 C 164.71875 160.628906 164.855469 160.402344 164.894531 160.140625 C 164.9375 159.859375 164.867188 159.566406 164.703125 159.34375 C 164.546875 159.125 164.316406 158.984375 164.054688 158.941406 C 164 158.933594 163.949219 158.929688 163.894531 158.929688 C 163.6875 158.929688 163.480469 158.996094 163.308594 159.121094 M 166.679688 162.472656 C 166.355469 162.707031 166.140625 163.058594 166.078125 163.453125 C 166.019531 163.847656 166.113281 164.246094 166.351562 164.566406 L 166.425781 164.671875 C 166.890625 165.308594 167.824219 165.429688 168.484375 164.949219 C 168.789062 164.722656 168.992188 164.382812 169.058594 163.988281 C 169.121094 163.570312 169.019531 163.136719 168.773438 162.800781 C 168.539062 162.476562 168.191406 162.265625 167.796875 162.203125 C 167.71875 162.191406 167.636719 162.183594 167.558594 162.183594 C 167.242188 162.183594 166.9375 162.285156 166.679688 162.472656 M 170.703125 166.710938 C 170.230469 167.179688 169.972656 167.808594 169.972656 168.476562 C 169.972656 169.144531 170.230469 169.773438 170.703125 170.246094 L 174.046875 173.589844 C 174.992188 174.535156 176.636719 174.53125 177.582031 173.589844 C 178.054688 173.117188 178.3125 172.488281 178.3125 171.820312 C 178.3125 171.152344 178.054688 170.527344 177.582031 170.054688 L 174.238281 166.710938 C 173.753906 166.222656 173.113281 165.980469 172.472656 165.980469 C 171.832031 165.980469 171.191406 166.222656 170.703125 166.710938 "/>
</clipPath>
<linearGradient id="linear-pattern-0" gradientUnits="userSpaceOnUse" x1="-0.230953" y1="0" x2="1.112559" y2="0" gradientTransform="matrix(-49.997566, -48.886513, 48.886513, -49.997566, 219.819138, 189.577148)">
<stop offset="0" stop-color="rgb(16.470337%, 21.960449%, 56.471252%)" stop-opacity="1"/>
<stop offset="0.25" stop-color="rgb(16.470337%, 21.960449%, 56.471252%)" stop-opacity="1"/>
<stop offset="0.375" stop-color="rgb(16.470337%, 21.960449%, 56.471252%)" stop-opacity="1"/>
<stop offset="0.40625" stop-color="rgb(16.470337%, 21.960449%, 56.471252%)" stop-opacity="1"/>
<stop offset="0.410156" stop-color="rgb(16.470337%, 22.744751%, 56.471252%)" stop-opacity="1"/>
<stop offset="0.414063" stop-color="rgb(16.470337%, 22.744751%, 56.863403%)" stop-opacity="1"/>
<stop offset="0.417969" stop-color="rgb(16.470337%, 23.136902%, 57.255554%)" stop-opacity="1"/>
<stop offset="0.421875" stop-color="rgb(16.078186%, 23.529053%, 57.255554%)" stop-opacity="1"/>
<stop offset="0.425781" stop-color="rgb(16.078186%, 23.921204%, 57.255554%)" stop-opacity="1"/>
<stop offset="0.429688" stop-color="rgb(16.078186%, 24.313354%, 57.647705%)" stop-opacity="1"/>
<stop offset="0.433594" stop-color="rgb(16.078186%, 24.705505%, 57.647705%)" stop-opacity="1"/>
<stop offset="0.4375" stop-color="rgb(16.078186%, 25.097656%, 58.039856%)" stop-opacity="1"/>
<stop offset="0.441406" stop-color="rgb(16.078186%, 25.489807%, 58.039856%)" stop-opacity="1"/>
<stop offset="0.445313" stop-color="rgb(16.078186%, 25.881958%, 58.432007%)" stop-opacity="1"/>
<stop offset="0.449219" stop-color="rgb(16.470337%, 25.881958%, 58.432007%)" stop-opacity="1"/>
<stop offset="0.453125" stop-color="rgb(16.078186%, 26.274109%, 58.432007%)" stop-opacity="1"/>
<stop offset="0.457031" stop-color="rgb(16.078186%, 26.66626%, 58.824158%)" stop-opacity="1"/>
<stop offset="0.460938" stop-color="rgb(15.686035%, 27.058411%, 59.216309%)" stop-opacity="1"/>
<stop offset="0.464844" stop-color="rgb(16.078186%, 27.450562%, 59.216309%)" stop-opacity="1"/>
<stop offset="0.46875" stop-color="rgb(16.470337%, 27.842712%, 59.608459%)" stop-opacity="1"/>
<stop offset="0.472656" stop-color="rgb(15.686035%, 28.234863%, 59.608459%)" stop-opacity="1"/>
<stop offset="0.476563" stop-color="rgb(16.078186%, 28.627014%, 60.00061%)" stop-opacity="1"/>
<stop offset="0.480469" stop-color="rgb(15.686035%, 29.019165%, 60.00061%)" stop-opacity="1"/>
<stop offset="0.484375" stop-color="rgb(16.078186%, 29.019165%, 60.392761%)" stop-opacity="1"/>
<stop offset="0.488281" stop-color="rgb(15.686035%, 29.411316%, 60.392761%)" stop-opacity="1"/>
<stop offset="0.492188" stop-color="rgb(16.078186%, 29.803467%, 60.784912%)" stop-opacity="1"/>
<stop offset="0.496094" stop-color="rgb(16.078186%, 30.195618%, 61.177063%)" stop-opacity="1"/>
<stop offset="0.5" stop-color="rgb(15.686035%, 30.587769%, 61.177063%)" stop-opacity="1"/>
<stop offset="0.503906" stop-color="rgb(16.078186%, 30.979919%, 61.569214%)" stop-opacity="1"/>
<stop offset="0.507812" stop-color="rgb(15.686035%, 31.37207%, 61.569214%)" stop-opacity="1"/>
<stop offset="0.511719" stop-color="rgb(16.078186%, 31.37207%, 61.961365%)" stop-opacity="1"/>
<stop offset="0.515625" stop-color="rgb(16.470337%, 31.764221%, 61.961365%)" stop-opacity="1"/>
<stop offset="0.519531" stop-color="rgb(16.078186%, 32.156372%, 61.961365%)" stop-opacity="1"/>
<stop offset="0.523438" stop-color="rgb(16.078186%, 32.548523%, 62.353516%)" stop-opacity="1"/>
<stop offset="0.527344" stop-color="rgb(15.686035%, 32.940674%, 62.745667%)" stop-opacity="1"/>
<stop offset="0.53125" stop-color="rgb(16.078186%, 33.332825%, 62.745667%)" stop-opacity="1"/>
<stop offset="0.535156" stop-color="rgb(15.686035%, 33.724976%, 63.137817%)" stop-opacity="1"/>
<stop offset="0.539062" stop-color="rgb(16.078186%, 33.724976%, 63.137817%)" stop-opacity="1"/>
<stop offset="0.542969" stop-color="rgb(16.078186%, 34.117126%, 63.529968%)" stop-opacity="1"/>
<stop offset="0.546875" stop-color="rgb(16.078186%, 34.509277%, 63.529968%)" stop-opacity="1"/>
<stop offset="0.550781" stop-color="rgb(16.078186%, 34.901428%, 63.922119%)" stop-opacity="1"/>
<stop offset="0.554688" stop-color="rgb(16.078186%, 34.901428%, 63.922119%)" stop-opacity="1"/>
<stop offset="0.558594" stop-color="rgb(16.078186%, 35.293579%, 64.31427%)" stop-opacity="1"/>
<stop offset="0.5625" stop-color="rgb(16.470337%, 36.077881%, 64.706421%)" stop-opacity="1"/>
<stop offset="0.566406" stop-color="rgb(16.078186%, 36.077881%, 64.706421%)" stop-opacity="1"/>
<stop offset="0.570312" stop-color="rgb(16.078186%, 36.470032%, 65.098572%)" stop-opacity="1"/>
<stop offset="0.574219" stop-color="rgb(16.078186%, 36.862183%, 65.098572%)" stop-opacity="1"/>
<stop offset="0.578125" stop-color="rgb(16.078186%, 37.254333%, 65.490723%)" stop-opacity="1"/>
<stop offset="0.582031" stop-color="rgb(15.686035%, 37.254333%, 65.882874%)" stop-opacity="1"/>
<stop offset="0.585938" stop-color="rgb(16.078186%, 37.646484%, 65.882874%)" stop-opacity="1"/>
<stop offset="0.589844" stop-color="rgb(16.470337%, 38.038635%, 66.275024%)" stop-opacity="1"/>
<stop offset="0.59375" stop-color="rgb(16.078186%, 38.430786%, 66.275024%)" stop-opacity="1"/>
<stop offset="0.597656" stop-color="rgb(16.078186%, 38.822937%, 66.667175%)" stop-opacity="1"/>
<stop offset="0.601562" stop-color="rgb(15.686035%, 38.822937%, 66.667175%)" stop-opacity="1"/>
<stop offset="0.605469" stop-color="rgb(16.078186%, 39.215088%, 67.059326%)" stop-opacity="1"/>
<stop offset="0.609375" stop-color="rgb(16.470337%, 39.607239%, 67.059326%)" stop-opacity="1"/>
<stop offset="0.613281" stop-color="rgb(16.078186%, 39.99939%, 67.451477%)" stop-opacity="1"/>
<stop offset="0.617187" stop-color="rgb(16.470337%, 39.99939%, 67.451477%)" stop-opacity="1"/>
<stop offset="0.621094" stop-color="rgb(15.686035%, 40.391541%, 67.843628%)" stop-opacity="1"/>
<stop offset="0.625" stop-color="rgb(16.470337%, 40.783691%, 67.843628%)" stop-opacity="1"/>
<stop offset="0.628906" stop-color="rgb(15.686035%, 41.175842%, 68.235779%)" stop-opacity="1"/>
<stop offset="0.632812" stop-color="rgb(16.078186%, 41.567993%, 68.62793%)" stop-opacity="1"/>
<stop offset="0.636719" stop-color="rgb(16.470337%, 41.567993%, 68.62793%)" stop-opacity="1"/>
<stop offset="0.640625" stop-color="rgb(16.078186%, 41.960144%, 69.020081%)" stop-opacity="1"/>
<stop offset="0.644531" stop-color="rgb(16.470337%, 42.352295%, 69.020081%)" stop-opacity="1"/>
<stop offset="0.648437" stop-color="rgb(16.078186%, 42.744446%, 69.412231%)" stop-opacity="1"/>
<stop offset="0.652344" stop-color="rgb(16.470337%, 42.744446%, 69.412231%)" stop-opacity="1"/>
<stop offset="0.65625" stop-color="rgb(16.470337%, 43.136597%, 70.196533%)" stop-opacity="1"/>
<stop offset="0.660156" stop-color="rgb(16.078186%, 43.528748%, 70.196533%)" stop-opacity="1"/>
<stop offset="0.664062" stop-color="rgb(16.470337%, 43.920898%, 70.588684%)" stop-opacity="1"/>
<stop offset="0.667969" stop-color="rgb(16.078186%, 44.313049%, 70.588684%)" stop-opacity="1"/>
<stop offset="0.671875" stop-color="rgb(16.470337%, 44.313049%, 70.980835%)" stop-opacity="1"/>
<stop offset="0.675781" stop-color="rgb(16.862488%, 44.7052%, 70.980835%)" stop-opacity="1"/>
<stop offset="0.679687" stop-color="rgb(16.470337%, 45.097351%, 71.372986%)" stop-opacity="1"/>
<stop offset="0.683594" stop-color="rgb(16.862488%, 45.489502%, 71.372986%)" stop-opacity="1"/>
<stop offset="0.6875" stop-color="rgb(16.470337%, 45.489502%, 71.765137%)" stop-opacity="1"/>
<stop offset="0.691406" stop-color="rgb(16.862488%, 45.881653%, 71.765137%)" stop-opacity="1"/>
<stop offset="0.695312" stop-color="rgb(16.078186%, 46.273804%, 72.157288%)" stop-opacity="1"/>
<stop offset="0.699219" stop-color="rgb(16.470337%, 46.665955%, 72.549438%)" stop-opacity="1"/>
<stop offset="0.703125" stop-color="rgb(16.862488%, 47.058105%, 72.941589%)" stop-opacity="1"/>
<stop offset="0.707031" stop-color="rgb(16.470337%, 47.450256%, 72.941589%)" stop-opacity="1"/>
<stop offset="0.710938" stop-color="rgb(16.470337%, 47.842407%, 73.33374%)" stop-opacity="1"/>
<stop offset="0.714844" stop-color="rgb(16.470337%, 47.842407%, 73.33374%)" stop-opacity="1"/>
<stop offset="0.71875" stop-color="rgb(16.470337%, 48.234558%, 73.725891%)" stop-opacity="1"/>
<stop offset="0.722656" stop-color="rgb(17.254639%, 48.626709%, 73.725891%)" stop-opacity="1"/>
<stop offset="0.726562" stop-color="rgb(16.470337%, 49.01886%, 74.118042%)" stop-opacity="1"/>
<stop offset="0.730469" stop-color="rgb(16.862488%, 49.411011%, 74.510193%)" stop-opacity="1"/>
<stop offset="0.734375" stop-color="rgb(16.470337%, 49.803162%, 74.510193%)" stop-opacity="1"/>
<stop offset="0.738281" stop-color="rgb(16.470337%, 50.196838%, 75.294495%)" stop-opacity="1"/>
<stop offset="0.742188" stop-color="rgb(16.078186%, 50.196838%, 75.294495%)" stop-opacity="1"/>
<stop offset="0.746094" stop-color="rgb(16.470337%, 50.588989%, 75.686646%)" stop-opacity="1"/>
<stop offset="0.75" stop-color="rgb(16.862488%, 50.98114%, 75.686646%)" stop-opacity="1"/>
<stop offset="0.753906" stop-color="rgb(16.078186%, 51.373291%, 76.078796%)" stop-opacity="1"/>
<stop offset="0.757812" stop-color="rgb(16.470337%, 51.765442%, 76.470947%)" stop-opacity="1"/>
<stop offset="0.761719" stop-color="rgb(16.078186%, 52.157593%, 76.470947%)" stop-opacity="1"/>
<stop offset="0.765625" stop-color="rgb(16.470337%, 52.549744%, 76.863098%)" stop-opacity="1"/>
<stop offset="0.769531" stop-color="rgb(16.862488%, 52.941895%, 77.255249%)" stop-opacity="1"/>
<stop offset="0.773438" stop-color="rgb(16.078186%, 53.334045%, 77.255249%)" stop-opacity="1"/>
<stop offset="0.777344" stop-color="rgb(16.470337%, 53.334045%, 77.6474%)" stop-opacity="1"/>
<stop offset="0.78125" stop-color="rgb(15.686035%, 53.726196%, 78.039551%)" stop-opacity="1"/>
<stop offset="0.785156" stop-color="rgb(16.470337%, 54.118347%, 78.431702%)" stop-opacity="1"/>
<stop offset="0.789062" stop-color="rgb(15.686035%, 54.510498%, 78.431702%)" stop-opacity="1"/>
<stop offset="0.792969" stop-color="rgb(16.078186%, 54.902649%, 78.823853%)" stop-opacity="1"/>
<stop offset="0.796875" stop-color="rgb(16.470337%, 55.2948%, 79.216003%)" stop-opacity="1"/>
<stop offset="0.800781" stop-color="rgb(15.686035%, 55.686951%, 79.608154%)" stop-opacity="1"/>
<stop offset="0.804688" stop-color="rgb(16.470337%, 56.079102%, 79.608154%)" stop-opacity="1"/>
<stop offset="0.808594" stop-color="rgb(15.686035%, 56.471252%, 80.000305%)" stop-opacity="1"/>
<stop offset="0.8125" stop-color="rgb(16.470337%, 56.863403%, 80.000305%)" stop-opacity="1"/>
<stop offset="0.816406" stop-color="rgb(16.470337%, 57.255554%, 80.784607%)" stop-opacity="1"/>
<stop offset="0.820312" stop-color="rgb(16.078186%, 57.255554%, 80.784607%)" stop-opacity="1"/>
<stop offset="0.824219" stop-color="rgb(16.078186%, 58.039856%, 81.176758%)" stop-opacity="1"/>
<stop offset="0.828125" stop-color="rgb(15.293884%, 58.432007%, 81.568909%)" stop-opacity="1"/>
<stop offset="0.832031" stop-color="rgb(16.078186%, 58.432007%, 81.96106%)" stop-opacity="1"/>
<stop offset="0.835938" stop-color="rgb(15.293884%, 58.824158%, 81.96106%)" stop-opacity="1"/>
<stop offset="0.839844" stop-color="rgb(15.686035%, 59.216309%, 82.35321%)" stop-opacity="1"/>
<stop offset="0.84375" stop-color="rgb(16.078186%, 59.608459%, 82.745361%)" stop-opacity="1"/>
<stop offset="0.847656" stop-color="rgb(15.686035%, 60.00061%, 82.745361%)" stop-opacity="1"/>
<stop offset="0.851563" stop-color="rgb(16.078186%, 60.392761%, 83.137512%)" stop-opacity="1"/>
<stop offset="0.855469" stop-color="rgb(15.293884%, 60.784912%, 83.529663%)" stop-opacity="1"/>
<stop offset="0.859375" stop-color="rgb(15.293884%, 61.177063%, 83.921814%)" stop-opacity="1"/>
<stop offset="0.863281" stop-color="rgb(15.686035%, 61.569214%, 84.313965%)" stop-opacity="1"/>
<stop offset="0.867187" stop-color="rgb(15.293884%, 61.961365%, 84.706116%)" stop-opacity="1"/>
<stop offset="0.871094" stop-color="rgb(15.686035%, 62.353516%, 84.706116%)" stop-opacity="1"/>
<stop offset="0.875" stop-color="rgb(15.293884%, 62.745667%, 85.098267%)" stop-opacity="1"/>
<stop offset="0.878906" stop-color="rgb(15.686035%, 63.137817%, 85.490417%)" stop-opacity="1"/>
<stop offset="0.882813" stop-color="rgb(16.470337%, 63.529968%, 85.490417%)" stop-opacity="1"/>
<stop offset="0.886719" stop-color="rgb(15.686035%, 63.922119%, 85.882568%)" stop-opacity="1"/>
<stop offset="0.890625" stop-color="rgb(15.686035%, 64.31427%, 86.274719%)" stop-opacity="1"/>
<stop offset="0.894531" stop-color="rgb(15.293884%, 64.31427%, 86.274719%)" stop-opacity="1"/>
<stop offset="0.898438" stop-color="rgb(15.293884%, 65.098572%, 87.059021%)" stop-opacity="1"/>
<stop offset="0.902344" stop-color="rgb(14.901733%, 65.098572%, 87.451172%)" stop-opacity="1"/>
<stop offset="0.90625" stop-color="rgb(15.293884%, 65.490723%, 87.843323%)" stop-opacity="1"/>
<stop offset="0.910156" stop-color="rgb(16.078186%, 65.882874%, 87.843323%)" stop-opacity="1"/>
<stop offset="0.914062" stop-color="rgb(14.901733%, 66.275024%, 88.235474%)" stop-opacity="1"/>
<stop offset="0.921875" stop-color="rgb(14.901733%, 66.275024%, 88.235474%)" stop-opacity="1"/>
<stop offset="0.9375" stop-color="rgb(15.686035%, 66.667175%, 88.235474%)" stop-opacity="1"/>
<stop offset="1" stop-color="rgb(15.686035%, 66.667175%, 88.235474%)" stop-opacity="1"/>
</linearGradient>
<clipPath id="clip-2">
<path clip-rule="nonzero" d="M 269 297 L 304 297 L 304 331 L 269 331 Z M 269 297 "/>
</clipPath>
<clipPath id="clip-3">
<path clip-rule="nonzero" d="M 283.878906 297.875 C 283.542969 298.117188 283.46875 298.585938 283.714844 298.921875 L 283.742188 298.960938 C 283.886719 299.15625 284.101562 299.257812 284.324219 299.257812 C 284.476562 299.257812 284.636719 299.207031 284.777344 299.105469 C 285.109375 298.859375 285.171875 298.371094 284.925781 298.039062 C 284.777344 297.835938 284.550781 297.730469 284.320312 297.730469 C 284.167969 297.730469 284.011719 297.777344 283.878906 297.875 M 285.773438 299.640625 C 285.328125 299.96875 285.230469 300.59375 285.554688 301.039062 L 285.59375 301.089844 C 285.785156 301.351562 286.070312 301.484375 286.367188 301.484375 C 286.574219 301.484375 286.785156 301.417969 286.972656 301.285156 C 287.417969 300.960938 287.496094 300.308594 287.171875 299.859375 C 286.976562 299.59375 286.671875 299.449219 286.363281 299.449219 C 286.160156 299.449219 285.953125 299.511719 285.773438 299.640625 M 278.9375 301.441406 C 278.347656 302.027344 278.347656 302.976562 278.929688 303.566406 L 279.054688 303.691406 C 279.347656 303.988281 279.734375 304.136719 280.121094 304.136719 C 280.503906 304.136719 280.882812 303.988281 281.175781 303.699219 C 281.765625 303.117188 281.769531 302.164062 281.183594 301.578125 L 281.058594 301.449219 C 280.765625 301.15625 280.378906 301.007812 279.992188 301.007812 C 279.613281 301.007812 279.230469 301.152344 278.9375 301.441406 M 287.804688 301.730469 C 287.21875 302.3125 287.214844 303.265625 287.800781 303.851562 L 287.925781 303.980469 C 288.21875 304.273438 288.605469 304.421875 288.988281 304.421875 C 289.371094 304.421875 289.753906 304.277344 290.046875 303.988281 C 290.632812 303.402344 290.636719 302.453125 290.054688 301.863281 L 289.929688 301.738281 C 289.636719 301.441406 289.25 301.296875 288.863281 301.296875 C 288.480469 301.296875 288.101562 301.441406 287.804688 301.730469 M 272.109375 303.554688 C 271.523438 304.136719 271.515625 305.089844 272.101562 305.675781 L 272.226562 305.804688 C 272.519531 306.097656 272.90625 306.246094 273.292969 306.246094 C 273.675781 306.246094 274.054688 306.101562 274.347656 305.8125 C 274.9375 305.226562 274.941406 304.277344 274.355469 303.691406 L 274.230469 303.5625 C 273.9375 303.269531 273.550781 303.121094 273.167969 303.121094 C 272.785156 303.121094 272.402344 303.265625 272.109375 303.554688 M 281.867188 304.378906 C 281.085938 305.160156 281.085938 306.417969 281.859375 307.199219 L 284.789062 310.132812 C 285.183594 310.523438 285.183594 311.160156 284.789062 311.554688 C 284.59375 311.753906 284.335938 311.851562 284.078125 311.851562 C 283.820312 311.851562 283.5625 311.753906 283.367188 311.554688 L 282.75 310.9375 L 282.75 310.953125 L 278.148438 306.351562 C 277.367188 305.570312 276.101562 305.570312 275.320312 306.351562 C 274.539062 307.132812 274.539062 308.398438 275.320312 309.179688 L 282.476562 316.335938 L 282.472656 316.34375 L 283.378906 317.246094 C 283.769531 317.640625 283.769531 318.277344 283.378906 318.671875 C 283.179688 318.867188 282.921875 318.96875 282.664062 318.96875 C 282.40625 318.96875 282.148438 318.867188 281.953125 318.671875 L 280.339844 317.058594 C 279.554688 316.40625 278.390625 316.441406 277.65625 317.175781 C 276.875 317.957031 276.875 319.226562 277.65625 320.003906 L 285.0625 327.410156 C 285.078125 327.429688 285.097656 327.441406 285.113281 327.457031 C 285.128906 327.476562 285.144531 327.496094 285.164062 327.511719 C 285.199219 327.546875 285.238281 327.574219 285.277344 327.605469 C 287.332031 329.558594 290.011719 330.644531 292.859375 330.644531 L 292.863281 330.644531 C 295.804688 330.644531 298.574219 329.496094 300.65625 327.414062 C 301.4375 326.636719 301.4375 325.367188 300.65625 324.585938 C 299.875 323.804688 298.609375 323.804688 297.828125 324.585938 C 296.5 325.914062 294.738281 326.644531 292.863281 326.644531 L 292.859375 326.644531 C 291.007812 326.640625 289.261719 325.925781 287.941406 324.628906 C 285.253906 321.882812 285.269531 317.46875 287.988281 314.75 C 290.710938 312.027344 295.132812 312.011719 297.875 314.699219 C 298.714844 315.558594 299.320312 316.613281 299.636719 317.761719 C 299.929688 318.828125 301.03125 319.457031 302.09375 319.164062 C 303.15625 318.871094 303.785156 317.773438 303.492188 316.707031 C 303.011719 314.945312 302.09375 313.324219 300.828125 312 C 300.804688 311.972656 300.777344 311.949219 300.753906 311.921875 C 300.738281 311.90625 300.71875 311.890625 300.703125 311.871094 C 300.683594 311.855469 300.667969 311.839844 300.652344 311.820312 L 293.496094 304.683594 C 292.714844 303.902344 291.449219 303.902344 290.667969 304.6875 C 289.9375 305.417969 289.902344 306.570312 290.542969 307.355469 L 290.53125 307.355469 L 291.839844 308.664062 C 292.234375 309.058594 292.234375 309.695312 291.839844 310.089844 C 291.644531 310.285156 291.386719 310.382812 291.128906 310.382812 C 290.871094 310.382812 290.613281 310.285156 290.417969 310.089844 L 288.378906 308.050781 L 288.378906 308.066406 L 284.691406 304.378906 C 284.304688 303.988281 283.789062 303.792969 283.277344 303.792969 C 282.769531 303.792969 282.257812 303.988281 281.867188 304.378906 M 269.445312 309.066406 C 269.113281 309.3125 269.035156 309.78125 269.28125 310.113281 L 269.3125 310.152344 C 269.453125 310.351562 269.667969 310.449219 269.886719 310.449219 C 270.046875 310.449219 270.203125 310.398438 270.34375 310.296875 C 270.679688 310.054688 270.738281 309.566406 270.492188 309.230469 C 270.347656 309.03125 270.117188 308.921875 269.886719 308.921875 C 269.734375 308.921875 269.578125 308.96875 269.445312 309.066406 M 271.128906 310.742188 C 270.683594 311.066406 270.585938 311.691406 270.910156 312.140625 L 270.949219 312.191406 C 271.140625 312.453125 271.425781 312.585938 271.722656 312.585938 C 271.929688 312.585938 272.140625 312.519531 272.328125 312.386719 C 272.773438 312.058594 272.851562 311.40625 272.527344 310.960938 C 272.332031 310.691406 272.027344 310.550781 271.71875 310.550781 C 271.515625 310.550781 271.308594 310.613281 271.128906 310.742188 M 273.113281 312.886719 C 272.527344 313.472656 272.527344 314.421875 273.113281 315.007812 L 274.785156 316.679688 C 275.078125 316.972656 275.460938 317.117188 275.84375 317.117188 C 276.230469 317.117188 276.613281 316.972656 276.90625 316.679688 C 277.492188 316.09375 277.492188 315.144531 276.90625 314.558594 L 275.234375 312.886719 C 274.941406 312.59375 274.558594 312.445312 274.175781 312.445312 C 273.789062 312.445312 273.40625 312.59375 273.113281 312.886719 "/>
</clipPath>
<linearGradient id="linear-pattern-1" gradientUnits="userSpaceOnUse" x1="-0.235446" y1="0" x2="1.114858" y2="0" gradientTransform="matrix(-25.340372, -24.777254, 24.777254, -25.340372, 298.025238, 324.59906)">
<stop offset="0" stop-color="rgb(16.470337%, 21.960449%, 56.471252%)" stop-opacity="1"/>
<stop offset="0.25" stop-color="rgb(16.470337%, 21.960449%, 56.471252%)" stop-opacity="1"/>
<stop offset="0.375" stop-color="rgb(16.470337%, 21.960449%, 56.471252%)" stop-opacity="1"/>
<stop offset="0.40625" stop-color="rgb(16.470337%, 21.960449%, 56.471252%)" stop-opacity="1"/>
<stop offset="0.410156" stop-color="rgb(16.862488%, 22.3526%, 56.471252%)" stop-opacity="1"/>
<stop offset="0.414062" stop-color="rgb(16.470337%, 22.744751%, 56.863403%)" stop-opacity="1"/>
<stop offset="0.417969" stop-color="rgb(16.470337%, 23.136902%, 56.863403%)" stop-opacity="1"/>
<stop offset="0.421875" stop-color="rgb(16.078186%, 23.529053%, 57.255554%)" stop-opacity="1"/>
<stop offset="0.425781" stop-color="rgb(16.470337%, 23.921204%, 57.255554%)" stop-opacity="1"/>
<stop offset="0.429688" stop-color="rgb(16.078186%, 24.313354%, 57.647705%)" stop-opacity="1"/>
<stop offset="0.433594" stop-color="rgb(16.078186%, 24.705505%, 57.647705%)" stop-opacity="1"/>
<stop offset="0.4375" stop-color="rgb(16.470337%, 25.097656%, 58.039856%)" stop-opacity="1"/>
<stop offset="0.441406" stop-color="rgb(16.078186%, 25.489807%, 58.039856%)" stop-opacity="1"/>
<stop offset="0.445312" stop-color="rgb(16.078186%, 25.489807%, 58.039856%)" stop-opacity="1"/>
<stop offset="0.449219" stop-color="rgb(15.686035%, 25.881958%, 58.432007%)" stop-opacity="1"/>
<stop offset="0.453125" stop-color="rgb(16.078186%, 26.274109%, 58.432007%)" stop-opacity="1"/>
<stop offset="0.457031" stop-color="rgb(16.078186%, 26.66626%, 58.824158%)" stop-opacity="1"/>
<stop offset="0.460938" stop-color="rgb(15.686035%, 27.058411%, 59.216309%)" stop-opacity="1"/>
<stop offset="0.464844" stop-color="rgb(16.078186%, 27.450562%, 59.216309%)" stop-opacity="1"/>
<stop offset="0.46875" stop-color="rgb(15.686035%, 27.842712%, 59.608459%)" stop-opacity="1"/>
<stop offset="0.472656" stop-color="rgb(16.078186%, 27.842712%, 59.608459%)" stop-opacity="1"/>
<stop offset="0.476562" stop-color="rgb(16.078186%, 28.627014%, 60.00061%)" stop-opacity="1"/>
<stop offset="0.480469" stop-color="rgb(16.078186%, 28.627014%, 60.00061%)" stop-opacity="1"/>
<stop offset="0.484375" stop-color="rgb(16.078186%, 29.019165%, 60.392761%)" stop-opacity="1"/>
<stop offset="0.488281" stop-color="rgb(15.686035%, 29.411316%, 60.392761%)" stop-opacity="1"/>
<stop offset="0.492187" stop-color="rgb(16.078186%, 29.803467%, 60.784912%)" stop-opacity="1"/>
<stop offset="0.496094" stop-color="rgb(15.686035%, 30.195618%, 60.784912%)" stop-opacity="1"/>
<stop offset="0.5" stop-color="rgb(16.078186%, 30.587769%, 61.177063%)" stop-opacity="1"/>
<stop offset="0.503906" stop-color="rgb(16.078186%, 30.979919%, 61.569214%)" stop-opacity="1"/>
<stop offset="0.507812" stop-color="rgb(16.078186%, 30.979919%, 61.569214%)" stop-opacity="1"/>
<stop offset="0.511719" stop-color="rgb(16.078186%, 31.37207%, 61.961365%)" stop-opacity="1"/>
<stop offset="0.515625" stop-color="rgb(15.686035%, 31.764221%, 61.961365%)" stop-opacity="1"/>
<stop offset="0.519531" stop-color="rgb(16.078186%, 32.156372%, 61.961365%)" stop-opacity="1"/>
<stop offset="0.523438" stop-color="rgb(16.078186%, 32.548523%, 62.353516%)" stop-opacity="1"/>
<stop offset="0.527344" stop-color="rgb(16.078186%, 32.940674%, 62.353516%)" stop-opacity="1"/>
<stop offset="0.53125" stop-color="rgb(16.078186%, 33.332825%, 62.745667%)" stop-opacity="1"/>
<stop offset="0.535156" stop-color="rgb(16.078186%, 33.332825%, 62.745667%)" stop-opacity="1"/>
<stop offset="0.539062" stop-color="rgb(16.078186%, 33.724976%, 63.137817%)" stop-opacity="1"/>
<stop offset="0.542969" stop-color="rgb(16.078186%, 34.117126%, 63.529968%)" stop-opacity="1"/>
<stop offset="0.546875" stop-color="rgb(16.078186%, 34.509277%, 63.529968%)" stop-opacity="1"/>
<stop offset="0.550781" stop-color="rgb(16.078186%, 34.901428%, 63.922119%)" stop-opacity="1"/>
<stop offset="0.554688" stop-color="rgb(16.078186%, 34.901428%, 63.922119%)" stop-opacity="1"/>
<stop offset="0.558594" stop-color="rgb(16.078186%, 35.293579%, 64.31427%)" stop-opacity="1"/>
<stop offset="0.5625" stop-color="rgb(15.686035%, 35.68573%, 64.31427%)" stop-opacity="1"/>
<stop offset="0.566406" stop-color="rgb(16.078186%, 36.077881%, 64.706421%)" stop-opacity="1"/>
<stop offset="0.570312" stop-color="rgb(16.470337%, 36.470032%, 64.706421%)" stop-opacity="1"/>
<stop offset="0.574219" stop-color="rgb(16.078186%, 36.862183%, 65.098572%)" stop-opacity="1"/>
<stop offset="0.578125" stop-color="rgb(16.078186%, 37.254333%, 65.490723%)" stop-opacity="1"/>
<stop offset="0.582031" stop-color="rgb(15.686035%, 37.254333%, 65.882874%)" stop-opacity="1"/>
<stop offset="0.585938" stop-color="rgb(16.078186%, 37.646484%, 65.882874%)" stop-opacity="1"/>
<stop offset="0.589844" stop-color="rgb(16.470337%, 38.038635%, 66.275024%)" stop-opacity="1"/>
<stop offset="0.59375" stop-color="rgb(16.078186%, 38.430786%, 66.275024%)" stop-opacity="1"/>
<stop offset="0.597656" stop-color="rgb(16.470337%, 38.430786%, 66.275024%)" stop-opacity="1"/>
<stop offset="0.601563" stop-color="rgb(15.686035%, 38.822937%, 66.667175%)" stop-opacity="1"/>
<stop offset="0.605469" stop-color="rgb(16.078186%, 39.215088%, 67.059326%)" stop-opacity="1"/>
<stop offset="0.609375" stop-color="rgb(16.470337%, 39.607239%, 67.059326%)" stop-opacity="1"/>
<stop offset="0.613281" stop-color="rgb(16.078186%, 39.99939%, 67.451477%)" stop-opacity="1"/>
<stop offset="0.617188" stop-color="rgb(16.470337%, 39.99939%, 67.451477%)" stop-opacity="1"/>
<stop offset="0.621094" stop-color="rgb(15.686035%, 40.391541%, 67.843628%)" stop-opacity="1"/>
<stop offset="0.625" stop-color="rgb(16.470337%, 40.783691%, 67.843628%)" stop-opacity="1"/>
<stop offset="0.628906" stop-color="rgb(15.686035%, 41.175842%, 68.235779%)" stop-opacity="1"/>
<stop offset="0.632812" stop-color="rgb(16.078186%, 41.567993%, 68.62793%)" stop-opacity="1"/>
<stop offset="0.636719" stop-color="rgb(16.470337%, 41.567993%, 68.62793%)" stop-opacity="1"/>
<stop offset="0.640625" stop-color="rgb(16.078186%, 41.960144%, 69.020081%)" stop-opacity="1"/>
<stop offset="0.644531" stop-color="rgb(16.470337%, 42.352295%, 69.020081%)" stop-opacity="1"/>
<stop offset="0.648437" stop-color="rgb(16.078186%, 42.744446%, 69.412231%)" stop-opacity="1"/>
<stop offset="0.652344" stop-color="rgb(16.470337%, 42.744446%, 69.412231%)" stop-opacity="1"/>
<stop offset="0.65625" stop-color="rgb(16.470337%, 43.136597%, 70.196533%)" stop-opacity="1"/>
<stop offset="0.660156" stop-color="rgb(16.078186%, 43.528748%, 70.196533%)" stop-opacity="1"/>
<stop offset="0.664062" stop-color="rgb(16.470337%, 43.920898%, 70.588684%)" stop-opacity="1"/>
<stop offset="0.667969" stop-color="rgb(16.078186%, 44.313049%, 70.588684%)" stop-opacity="1"/>
<stop offset="0.671875" stop-color="rgb(16.470337%, 44.313049%, 70.980835%)" stop-opacity="1"/>
<stop offset="0.675781" stop-color="rgb(16.862488%, 44.7052%, 70.980835%)" stop-opacity="1"/>
<stop offset="0.679688" stop-color="rgb(16.470337%, 45.097351%, 71.372986%)" stop-opacity="1"/>
<stop offset="0.683594" stop-color="rgb(16.862488%, 45.489502%, 71.372986%)" stop-opacity="1"/>
<stop offset="0.6875" stop-color="rgb(16.078186%, 45.881653%, 71.765137%)" stop-opacity="1"/>
<stop offset="0.691406" stop-color="rgb(16.862488%, 45.881653%, 71.765137%)" stop-opacity="1"/>
<stop offset="0.695312" stop-color="rgb(16.078186%, 46.273804%, 72.157288%)" stop-opacity="1"/>
<stop offset="0.699219" stop-color="rgb(16.470337%, 46.665955%, 72.549438%)" stop-opacity="1"/>
<stop offset="0.703125" stop-color="rgb(16.862488%, 47.058105%, 72.941589%)" stop-opacity="1"/>
<stop offset="0.707031" stop-color="rgb(16.470337%, 47.450256%, 72.941589%)" stop-opacity="1"/>
<stop offset="0.710938" stop-color="rgb(16.470337%, 47.842407%, 73.33374%)" stop-opacity="1"/>
<stop offset="0.714844" stop-color="rgb(16.470337%, 47.842407%, 73.33374%)" stop-opacity="1"/>
<stop offset="0.71875" stop-color="rgb(16.470337%, 48.234558%, 73.725891%)" stop-opacity="1"/>
<stop offset="0.722656" stop-color="rgb(16.862488%, 49.01886%, 74.118042%)" stop-opacity="1"/>
<stop offset="0.726563" stop-color="rgb(16.470337%, 49.01886%, 74.118042%)" stop-opacity="1"/>
<stop offset="0.730469" stop-color="rgb(16.862488%, 49.411011%, 74.510193%)" stop-opacity="1"/>
<stop offset="0.734375" stop-color="rgb(16.470337%, 49.803162%, 74.510193%)" stop-opacity="1"/>
<stop offset="0.738281" stop-color="rgb(16.470337%, 50.196838%, 75.294495%)" stop-opacity="1"/>
<stop offset="0.742188" stop-color="rgb(16.862488%, 50.196838%, 75.294495%)" stop-opacity="1"/>
<stop offset="0.746094" stop-color="rgb(16.470337%, 50.588989%, 75.686646%)" stop-opacity="1"/>
<stop offset="0.75" stop-color="rgb(16.470337%, 51.373291%, 76.078796%)" stop-opacity="1"/>
<stop offset="0.753906" stop-color="rgb(16.078186%, 51.373291%, 76.078796%)" stop-opacity="1"/>
<stop offset="0.757812" stop-color="rgb(16.470337%, 51.765442%, 76.470947%)" stop-opacity="1"/>
<stop offset="0.761719" stop-color="rgb(16.078186%, 52.157593%, 76.470947%)" stop-opacity="1"/>
<stop offset="0.765625" stop-color="rgb(16.470337%, 52.549744%, 76.863098%)" stop-opacity="1"/>
<stop offset="0.769531" stop-color="rgb(16.862488%, 52.941895%, 77.255249%)" stop-opacity="1"/>
<stop offset="0.773437" stop-color="rgb(16.078186%, 53.334045%, 77.255249%)" stop-opacity="1"/>
<stop offset="0.777344" stop-color="rgb(16.078186%, 53.726196%, 78.039551%)" stop-opacity="1"/>
<stop offset="0.78125" stop-color="rgb(15.686035%, 53.726196%, 78.039551%)" stop-opacity="1"/>
<stop offset="0.785156" stop-color="rgb(16.078186%, 54.510498%, 78.431702%)" stop-opacity="1"/>
<stop offset="0.789062" stop-color="rgb(16.862488%, 54.510498%, 78.823853%)" stop-opacity="1"/>
<stop offset="0.792969" stop-color="rgb(16.078186%, 54.902649%, 78.823853%)" stop-opacity="1"/>
<stop offset="0.796875" stop-color="rgb(16.470337%, 55.2948%, 79.216003%)" stop-opacity="1"/>
<stop offset="0.800781" stop-color="rgb(15.686035%, 55.686951%, 79.608154%)" stop-opacity="1"/>
<stop offset="0.804688" stop-color="rgb(16.078186%, 56.079102%, 79.608154%)" stop-opacity="1"/>
<stop offset="0.808594" stop-color="rgb(16.862488%, 56.471252%, 80.000305%)" stop-opacity="1"/>
<stop offset="0.8125" stop-color="rgb(16.078186%, 56.863403%, 80.392456%)" stop-opacity="1"/>
<stop offset="0.816406" stop-color="rgb(16.470337%, 57.255554%, 80.784607%)" stop-opacity="1"/>
<stop offset="0.820312" stop-color="rgb(15.686035%, 57.647705%, 81.176758%)" stop-opacity="1"/>
<stop offset="0.824219" stop-color="rgb(16.078186%, 58.039856%, 81.176758%)" stop-opacity="1"/>
<stop offset="0.828125" stop-color="rgb(15.293884%, 58.432007%, 81.568909%)" stop-opacity="1"/>
<stop offset="0.832031" stop-color="rgb(16.078186%, 58.432007%, 81.96106%)" stop-opacity="1"/>
<stop offset="0.835938" stop-color="rgb(16.078186%, 59.216309%, 82.35321%)" stop-opacity="1"/>
<stop offset="0.839844" stop-color="rgb(15.293884%, 59.608459%, 82.35321%)" stop-opacity="1"/>
<stop offset="0.84375" stop-color="rgb(16.078186%, 59.608459%, 82.745361%)" stop-opacity="1"/>
<stop offset="0.847656" stop-color="rgb(15.293884%, 60.00061%, 83.137512%)" stop-opacity="1"/>
<stop offset="0.851563" stop-color="rgb(16.078186%, 60.392761%, 83.137512%)" stop-opacity="1"/>
<stop offset="0.855469" stop-color="rgb(15.686035%, 60.784912%, 83.921814%)" stop-opacity="1"/>
<stop offset="0.859375" stop-color="rgb(15.293884%, 61.177063%, 83.921814%)" stop-opacity="1"/>
<stop offset="0.863281" stop-color="rgb(15.686035%, 61.569214%, 84.313965%)" stop-opacity="1"/>
<stop offset="0.867188" stop-color="rgb(14.901733%, 61.961365%, 84.706116%)" stop-opacity="1"/>
<stop offset="0.871094" stop-color="rgb(15.686035%, 62.353516%, 84.706116%)" stop-opacity="1"/>
<stop offset="0.875" stop-color="rgb(14.901733%, 62.745667%, 85.098267%)" stop-opacity="1"/>
<stop offset="0.878906" stop-color="rgb(15.686035%, 63.137817%, 85.490417%)" stop-opacity="1"/>
<stop offset="0.882812" stop-color="rgb(16.078186%, 63.529968%, 85.882568%)" stop-opacity="1"/>
<stop offset="0.886719" stop-color="rgb(15.686035%, 63.922119%, 85.882568%)" stop-opacity="1"/>
<stop offset="0.890625" stop-color="rgb(15.686035%, 64.31427%, 86.274719%)" stop-opacity="1"/>
<stop offset="0.894531" stop-color="rgb(14.901733%, 64.706421%, 86.66687%)" stop-opacity="1"/>
<stop offset="0.898438" stop-color="rgb(15.293884%, 65.098572%, 87.059021%)" stop-opacity="1"/>
<stop offset="0.902344" stop-color="rgb(15.686035%, 65.490723%, 87.451172%)" stop-opacity="1"/>
<stop offset="0.90625" stop-color="rgb(15.293884%, 65.490723%, 87.843323%)" stop-opacity="1"/>
<stop offset="0.910156" stop-color="rgb(15.686035%, 66.275024%, 88.235474%)" stop-opacity="1"/>
<stop offset="0.914062" stop-color="rgb(14.901733%, 66.275024%, 88.235474%)" stop-opacity="1"/>
<stop offset="0.921875" stop-color="rgb(14.509583%, 66.667175%, 88.235474%)" stop-opacity="1"/>
<stop offset="0.9375" stop-color="rgb(15.686035%, 66.667175%, 88.235474%)" stop-opacity="1"/>
<stop offset="1" stop-color="rgb(15.686035%, 66.667175%, 88.235474%)" stop-opacity="1"/>
</linearGradient>
<clipPath id="clip-4">
<path clip-rule="nonzero" d="M 162 504 L 231 504 L 231 570 L 162 570 Z M 162 504 "/>
</clipPath>
<clipPath id="clip-5">
<path clip-rule="nonzero" d="M 192.175781 505.015625 C 191.960938 505.171875 191.816406 505.402344 191.777344 505.667969 C 191.734375 505.933594 191.800781 506.195312 191.957031 506.410156 C 192.367188 506.976562 192.9375 506.996094 193.382812 506.671875 C 193.585938 506.523438 193.71875 506.296875 193.761719 506.03125 C 193.804688 505.75 193.738281 505.460938 193.570312 505.234375 C 193.414062 505.019531 193.183594 504.878906 192.921875 504.835938 C 192.867188 504.828125 192.816406 504.824219 192.761719 504.824219 C 192.550781 504.824219 192.347656 504.890625 192.175781 505.015625 M 195.964844 508.554688 C 195.644531 508.789062 195.429688 509.136719 195.367188 509.53125 C 195.304688 509.929688 195.402344 510.324219 195.636719 510.648438 L 195.714844 510.753906 C 196.175781 511.390625 197.113281 511.511719 197.769531 511.027344 C 198.078125 510.804688 198.28125 510.464844 198.34375 510.070312 C 198.410156 509.648438 198.308594 509.21875 198.0625 508.882812 C 197.824219 508.558594 197.480469 508.347656 197.085938 508.285156 C 197.003906 508.269531 196.925781 508.265625 196.847656 508.265625 C 196.53125 508.265625 196.226562 508.363281 195.964844 508.554688 M 182.351562 512.105469 C 181.875 512.574219 181.613281 513.203125 181.609375 513.871094 C 181.609375 514.539062 181.867188 515.167969 182.335938 515.640625 L 182.589844 515.894531 C 183.527344 516.84375 185.175781 516.847656 186.125 515.90625 C 186.597656 515.4375 186.859375 514.8125 186.863281 514.144531 C 186.867188 513.476562 186.609375 512.847656 186.136719 512.371094 L 185.886719 512.117188 C 185.398438 511.628906 184.753906 511.382812 184.109375 511.382812 C 183.476562 511.382812 182.835938 511.621094 182.351562 512.105469 M 200.089844 512.679688 C 199.613281 513.148438 199.351562 513.777344 199.351562 514.445312 C 199.347656 515.113281 199.605469 515.742188 200.074219 516.214844 L 200.328125 516.46875 C 201.265625 517.417969 202.910156 517.425781 203.863281 516.484375 C 204.335938 516.015625 204.597656 515.386719 204.601562 514.71875 C 204.605469 514.050781 204.347656 513.421875 203.875 512.949219 L 203.625 512.695312 C 203.136719 512.203125 202.492188 511.957031 201.847656 511.957031 C 201.214844 511.957031 200.574219 512.199219 200.089844 512.679688 M 168.695312 516.328125 C 168.222656 516.800781 167.960938 517.425781 167.957031 518.09375 C 167.953125 518.761719 168.210938 519.390625 168.683594 519.863281 L 168.933594 520.117188 C 169.871094 521.066406 171.519531 521.074219 172.46875 520.132812 C 172.941406 519.660156 173.203125 519.035156 173.207031 518.367188 C 173.210938 517.699219 172.953125 517.070312 172.480469 516.597656 L 172.230469 516.34375 C 171.742188 515.851562 171.101562 515.605469 170.457031 515.605469 C 169.820312 515.605469 169.183594 515.847656 168.695312 516.328125 M 188.207031 517.976562 C 186.851562 519.335938 186.84375 521.546875 188.195312 522.914062 L 194.054688 528.773438 C 194.53125 529.246094 194.792969 529.878906 194.792969 530.550781 C 194.792969 531.222656 194.53125 531.851562 194.054688 532.328125 C 193.109375 533.277344 191.453125 533.277344 190.5 532.328125 L 180.066406 521.917969 C 178.699219 520.554688 176.480469 520.554688 175.117188 521.917969 C 173.75 523.28125 173.75 525.503906 175.117188 526.867188 L 189.644531 541.398438 L 189.640625 541.417969 L 191.230469 543.007812 C 191.703125 543.480469 191.964844 544.113281 191.964844 544.785156 C 191.964844 545.457031 191.703125 546.089844 191.230469 546.5625 C 190.28125 547.511719 188.625 547.511719 187.675781 546.5625 L 184.449219 543.339844 C 183.8125 542.808594 183.03125 542.546875 182.253906 542.546875 C 181.363281 542.546875 180.46875 542.890625 179.789062 543.570312 C 179.125 544.234375 178.761719 545.113281 178.761719 546.046875 C 178.761719 546.980469 179.125 547.859375 179.789062 548.519531 L 194.773438 563.507812 C 194.828125 563.5625 194.855469 563.582031 194.882812 563.601562 C 194.925781 563.632812 194.964844 563.664062 195.003906 563.695312 C 199.046875 567.539062 204.308594 569.648438 209.839844 569.652344 C 215.601562 569.652344 221.011719 567.410156 225.078125 563.339844 C 225.742188 562.679688 226.105469 561.800781 226.105469 560.867188 C 226.105469 559.933594 225.742188 559.054688 225.078125 558.390625 C 223.757812 557.070312 221.453125 557.070312 220.132812 558.390625 C 217.382812 561.136719 213.730469 562.652344 209.847656 562.652344 C 206.011719 562.648438 202.394531 561.167969 199.652344 558.476562 C 194.09375 552.796875 194.140625 543.617188 199.746094 538.007812 C 205.363281 532.394531 214.550781 532.347656 220.222656 537.910156 C 221.964844 539.6875 223.226562 541.878906 223.878906 544.257812 C 224.125 545.160156 224.710938 545.914062 225.527344 546.378906 C 226.339844 546.839844 227.277344 546.957031 228.171875 546.710938 C 229.078125 546.460938 229.828125 545.878906 230.292969 545.066406 C 230.753906 544.257812 230.875 543.3125 230.628906 542.410156 C 229.691406 538.980469 227.890625 535.800781 225.414062 533.214844 C 225.359375 533.148438 225.316406 533.105469 225.273438 533.058594 L 225.167969 532.957031 L 225.425781 532.507812 L 225.070312 532.859375 L 210.765625 518.585938 C 210.101562 517.921875 209.230469 517.523438 208.289062 517.558594 C 207.351562 517.5625 206.472656 517.925781 205.816406 518.589844 C 204.550781 519.855469 204.457031 521.863281 205.597656 523.261719 L 205.675781 523.359375 L 208.15625 525.839844 C 208.632812 526.316406 208.894531 526.945312 208.894531 527.617188 C 208.894531 528.289062 208.632812 528.921875 208.15625 529.394531 C 207.207031 530.347656 205.550781 530.347656 204.601562 529.394531 L 193.15625 517.976562 C 192.496094 517.316406 191.589844 516.984375 190.683594 516.984375 C 189.773438 516.984375 188.867188 517.316406 188.207031 517.976562 M 163.308594 527.402344 C 163.09375 527.558594 162.949219 527.792969 162.910156 528.058594 C 162.867188 528.320312 162.933594 528.585938 163.089844 528.800781 C 163.5 529.359375 164.070312 529.382812 164.515625 529.058594 C 164.71875 528.910156 164.855469 528.683594 164.894531 528.421875 C 164.9375 528.140625 164.867188 527.847656 164.703125 527.621094 C 164.546875 527.40625 164.316406 527.265625 164.054688 527.222656 C 164 527.214844 163.949219 527.210938 163.894531 527.210938 C 163.6875 527.210938 163.480469 527.277344 163.308594 527.402344 M 166.679688 530.753906 C 166.355469 530.988281 166.140625 531.335938 166.078125 531.734375 C 166.019531 532.128906 166.113281 532.523438 166.351562 532.847656 L 166.425781 532.953125 C 166.890625 533.589844 167.824219 533.710938 168.484375 533.226562 C 168.789062 533.003906 168.992188 532.664062 169.058594 532.269531 C 169.121094 531.851562 169.019531 531.417969 168.773438 531.082031 C 168.539062 530.757812 168.191406 530.546875 167.796875 530.484375 C 167.71875 530.472656 167.636719 530.464844 167.558594 530.464844 C 167.242188 530.464844 166.9375 530.5625 166.679688 530.753906 M 170.703125 534.988281 C 170.230469 535.460938 169.972656 536.089844 169.972656 536.757812 C 169.972656 537.425781 170.230469 538.050781 170.703125 538.527344 L 174.046875 541.867188 C 174.992188 542.8125 176.636719 542.8125 177.582031 541.867188 C 178.054688 541.398438 178.3125 540.769531 178.3125 540.101562 C 178.3125 539.433594 178.054688 538.804688 177.582031 538.335938 L 174.238281 534.992188 C 173.753906 534.503906 173.113281 534.257812 172.472656 534.257812 C 171.832031 534.257812 171.191406 534.503906 170.703125 534.988281 "/>
</clipPath>
<linearGradient id="linear-pattern-2" gradientUnits="userSpaceOnUse" x1="-0.230952" y1="0" x2="1.11256" y2="0" gradientTransform="matrix(-49.997566, -48.886513, 48.886513, -49.997566, 219.819138, 557.857208)">
<stop offset="0" stop-color="rgb(16.470337%, 21.960449%, 56.471252%)" stop-opacity="1"/>
<stop offset="0.25" stop-color="rgb(16.470337%, 21.960449%, 56.471252%)" stop-opacity="1"/>
<stop offset="0.375" stop-color="rgb(16.470337%, 21.960449%, 56.471252%)" stop-opacity="1"/>
<stop offset="0.40625" stop-color="rgb(16.470337%, 21.960449%, 56.471252%)" stop-opacity="1"/>
<stop offset="0.410156" stop-color="rgb(16.470337%, 22.744751%, 56.471252%)" stop-opacity="1"/>
<stop offset="0.414062" stop-color="rgb(16.470337%, 22.744751%, 56.863403%)" stop-opacity="1"/>
<stop offset="0.417969" stop-color="rgb(16.470337%, 23.136902%, 57.255554%)" stop-opacity="1"/>
<stop offset="0.421875" stop-color="rgb(16.078186%, 23.529053%, 57.255554%)" stop-opacity="1"/>
<stop offset="0.425781" stop-color="rgb(16.078186%, 23.921204%, 57.255554%)" stop-opacity="1"/>
<stop offset="0.429688" stop-color="rgb(16.078186%, 24.313354%, 57.647705%)" stop-opacity="1"/>
<stop offset="0.433594" stop-color="rgb(16.078186%, 24.705505%, 57.647705%)" stop-opacity="1"/>
<stop offset="0.4375" stop-color="rgb(16.078186%, 25.097656%, 58.039856%)" stop-opacity="1"/>
<stop offset="0.441406" stop-color="rgb(16.078186%, 25.489807%, 58.039856%)" stop-opacity="1"/>
<stop offset="0.445312" stop-color="rgb(16.078186%, 25.881958%, 58.432007%)" stop-opacity="1"/>
<stop offset="0.449219" stop-color="rgb(16.470337%, 25.881958%, 58.432007%)" stop-opacity="1"/>
<stop offset="0.453125" stop-color="rgb(16.078186%, 26.274109%, 58.432007%)" stop-opacity="1"/>
<stop offset="0.457031" stop-color="rgb(16.078186%, 26.66626%, 58.824158%)" stop-opacity="1"/>
<stop offset="0.460938" stop-color="rgb(15.686035%, 27.058411%, 59.216309%)" stop-opacity="1"/>
<stop offset="0.464844" stop-color="rgb(16.078186%, 27.450562%, 59.216309%)" stop-opacity="1"/>
<stop offset="0.46875" stop-color="rgb(16.470337%, 27.842712%, 59.608459%)" stop-opacity="1"/>
<stop offset="0.472656" stop-color="rgb(15.686035%, 28.234863%, 59.608459%)" stop-opacity="1"/>
<stop offset="0.476562" stop-color="rgb(16.078186%, 28.627014%, 60.00061%)" stop-opacity="1"/>
<stop offset="0.480469" stop-color="rgb(15.686035%, 29.019165%, 60.00061%)" stop-opacity="1"/>
<stop offset="0.484375" stop-color="rgb(16.078186%, 29.019165%, 60.392761%)" stop-opacity="1"/>
<stop offset="0.488281" stop-color="rgb(15.686035%, 29.411316%, 60.392761%)" stop-opacity="1"/>
<stop offset="0.492188" stop-color="rgb(16.078186%, 29.803467%, 60.784912%)" stop-opacity="1"/>
<stop offset="0.496094" stop-color="rgb(16.078186%, 30.195618%, 61.177063%)" stop-opacity="1"/>
<stop offset="0.5" stop-color="rgb(15.686035%, 30.587769%, 61.177063%)" stop-opacity="1"/>
<stop offset="0.503906" stop-color="rgb(16.078186%, 30.979919%, 61.569214%)" stop-opacity="1"/>
<stop offset="0.507812" stop-color="rgb(15.686035%, 31.37207%, 61.569214%)" stop-opacity="1"/>
<stop offset="0.511719" stop-color="rgb(16.078186%, 31.37207%, 61.961365%)" stop-opacity="1"/>
<stop offset="0.515625" stop-color="rgb(16.470337%, 31.764221%, 61.961365%)" stop-opacity="1"/>
<stop offset="0.519531" stop-color="rgb(16.078186%, 32.156372%, 61.961365%)" stop-opacity="1"/>
<stop offset="0.523438" stop-color="rgb(16.078186%, 32.548523%, 62.353516%)" stop-opacity="1"/>
<stop offset="0.527344" stop-color="rgb(15.686035%, 32.940674%, 62.745667%)" stop-opacity="1"/>
<stop offset="0.53125" stop-color="rgb(16.078186%, 33.332825%, 62.745667%)" stop-opacity="1"/>
<stop offset="0.535156" stop-color="rgb(15.686035%, 33.724976%, 63.137817%)" stop-opacity="1"/>
<stop offset="0.539062" stop-color="rgb(16.078186%, 33.724976%, 63.137817%)" stop-opacity="1"/>
<stop offset="0.542969" stop-color="rgb(16.078186%, 34.117126%, 63.529968%)" stop-opacity="1"/>
<stop offset="0.546875" stop-color="rgb(16.078186%, 34.509277%, 63.529968%)" stop-opacity="1"/>
<stop offset="0.550781" stop-color="rgb(16.078186%, 34.901428%, 63.922119%)" stop-opacity="1"/>
<stop offset="0.554688" stop-color="rgb(16.078186%, 34.901428%, 63.922119%)" stop-opacity="1"/>
<stop offset="0.558594" stop-color="rgb(16.078186%, 35.293579%, 64.31427%)" stop-opacity="1"/>
<stop offset="0.5625" stop-color="rgb(16.470337%, 36.077881%, 64.706421%)" stop-opacity="1"/>
<stop offset="0.566406" stop-color="rgb(16.078186%, 36.077881%, 64.706421%)" stop-opacity="1"/>
<stop offset="0.570312" stop-color="rgb(16.078186%, 36.470032%, 65.098572%)" stop-opacity="1"/>
<stop offset="0.574219" stop-color="rgb(16.078186%, 36.862183%, 65.098572%)" stop-opacity="1"/>
<stop offset="0.578125" stop-color="rgb(16.078186%, 37.254333%, 65.490723%)" stop-opacity="1"/>
<stop offset="0.582031" stop-color="rgb(15.686035%, 37.254333%, 65.882874%)" stop-opacity="1"/>
<stop offset="0.585938" stop-color="rgb(16.078186%, 37.646484%, 65.882874%)" stop-opacity="1"/>
<stop offset="0.589844" stop-color="rgb(16.470337%, 38.038635%, 66.275024%)" stop-opacity="1"/>
<stop offset="0.59375" stop-color="rgb(16.078186%, 38.430786%, 66.275024%)" stop-opacity="1"/>
<stop offset="0.597656" stop-color="rgb(16.078186%, 38.822937%, 66.667175%)" stop-opacity="1"/>
<stop offset="0.601563" stop-color="rgb(15.686035%, 38.822937%, 66.667175%)" stop-opacity="1"/>
<stop offset="0.605469" stop-color="rgb(16.078186%, 39.215088%, 67.059326%)" stop-opacity="1"/>
<stop offset="0.609375" stop-color="rgb(16.470337%, 39.607239%, 67.059326%)" stop-opacity="1"/>
<stop offset="0.613281" stop-color="rgb(16.078186%, 39.99939%, 67.451477%)" stop-opacity="1"/>
<stop offset="0.617188" stop-color="rgb(16.470337%, 39.99939%, 67.451477%)" stop-opacity="1"/>
<stop offset="0.621094" stop-color="rgb(15.686035%, 40.391541%, 67.843628%)" stop-opacity="1"/>
<stop offset="0.625" stop-color="rgb(16.470337%, 40.783691%, 67.843628%)" stop-opacity="1"/>
<stop offset="0.628906" stop-color="rgb(15.686035%, 41.175842%, 68.235779%)" stop-opacity="1"/>
<stop offset="0.632812" stop-color="rgb(16.078186%, 41.567993%, 68.62793%)" stop-opacity="1"/>
<stop offset="0.636719" stop-color="rgb(16.470337%, 41.567993%, 68.62793%)" stop-opacity="1"/>
<stop offset="0.640625" stop-color="rgb(16.078186%, 41.960144%, 69.020081%)" stop-opacity="1"/>
<stop offset="0.644531" stop-color="rgb(16.470337%, 42.352295%, 69.020081%)" stop-opacity="1"/>
<stop offset="0.648437" stop-color="rgb(16.078186%, 42.744446%, 69.412231%)" stop-opacity="1"/>
<stop offset="0.652344" stop-color="rgb(16.470337%, 42.744446%, 69.412231%)" stop-opacity="1"/>
<stop offset="0.65625" stop-color="rgb(16.470337%, 43.136597%, 70.196533%)" stop-opacity="1"/>
<stop offset="0.660156" stop-color="rgb(16.078186%, 43.528748%, 70.196533%)" stop-opacity="1"/>
<stop offset="0.664062" stop-color="rgb(16.470337%, 43.920898%, 70.588684%)" stop-opacity="1"/>
<stop offset="0.667969" stop-color="rgb(16.078186%, 44.313049%, 70.588684%)" stop-opacity="1"/>
<stop offset="0.671875" stop-color="rgb(16.470337%, 44.313049%, 70.980835%)" stop-opacity="1"/>
<stop offset="0.675781" stop-color="rgb(16.862488%, 44.7052%, 70.980835%)" stop-opacity="1"/>
<stop offset="0.679688" stop-color="rgb(16.470337%, 45.097351%, 71.372986%)" stop-opacity="1"/>
<stop offset="0.683594" stop-color="rgb(16.862488%, 45.489502%, 71.372986%)" stop-opacity="1"/>
<stop offset="0.6875" stop-color="rgb(16.470337%, 45.489502%, 71.765137%)" stop-opacity="1"/>
<stop offset="0.691406" stop-color="rgb(16.862488%, 45.881653%, 71.765137%)" stop-opacity="1"/>
<stop offset="0.695312" stop-color="rgb(16.078186%, 46.273804%, 72.157288%)" stop-opacity="1"/>
<stop offset="0.699219" stop-color="rgb(16.470337%, 46.665955%, 72.549438%)" stop-opacity="1"/>
<stop offset="0.703125" stop-color="rgb(16.862488%, 47.058105%, 72.941589%)" stop-opacity="1"/>
<stop offset="0.707031" stop-color="rgb(16.470337%, 47.450256%, 72.941589%)" stop-opacity="1"/>
<stop offset="0.710938" stop-color="rgb(16.470337%, 47.842407%, 73.33374%)" stop-opacity="1"/>
<stop offset="0.714844" stop-color="rgb(16.470337%, 47.842407%, 73.33374%)" stop-opacity="1"/>
<stop offset="0.71875" stop-color="rgb(16.470337%, 48.234558%, 73.725891%)" stop-opacity="1"/>
<stop offset="0.722656" stop-color="rgb(17.254639%, 48.626709%, 73.725891%)" stop-opacity="1"/>
<stop offset="0.726562" stop-color="rgb(16.470337%, 49.01886%, 74.118042%)" stop-opacity="1"/>
<stop offset="0.730469" stop-color="rgb(16.862488%, 49.411011%, 74.510193%)" stop-opacity="1"/>
<stop offset="0.734375" stop-color="rgb(16.470337%, 49.803162%, 74.510193%)" stop-opacity="1"/>
<stop offset="0.738281" stop-color="rgb(16.470337%, 50.196838%, 75.294495%)" stop-opacity="1"/>
<stop offset="0.742188" stop-color="rgb(16.078186%, 50.196838%, 75.294495%)" stop-opacity="1"/>
<stop offset="0.746094" stop-color="rgb(16.470337%, 50.588989%, 75.686646%)" stop-opacity="1"/>
<stop offset="0.75" stop-color="rgb(16.862488%, 50.98114%, 75.686646%)" stop-opacity="1"/>
<stop offset="0.753906" stop-color="rgb(16.078186%, 51.373291%, 76.078796%)" stop-opacity="1"/>
<stop offset="0.757812" stop-color="rgb(16.470337%, 51.765442%, 76.470947%)" stop-opacity="1"/>
<stop offset="0.761719" stop-color="rgb(16.078186%, 52.157593%, 76.470947%)" stop-opacity="1"/>
<stop offset="0.765625" stop-color="rgb(16.470337%, 52.549744%, 76.863098%)" stop-opacity="1"/>
<stop offset="0.769531" stop-color="rgb(16.862488%, 52.941895%, 77.255249%)" stop-opacity="1"/>
<stop offset="0.773438" stop-color="rgb(16.078186%, 53.334045%, 77.255249%)" stop-opacity="1"/>
<stop offset="0.777344" stop-color="rgb(16.470337%, 53.334045%, 77.6474%)" stop-opacity="1"/>
<stop offset="0.78125" stop-color="rgb(15.686035%, 53.726196%, 78.039551%)" stop-opacity="1"/>
<stop offset="0.785156" stop-color="rgb(16.470337%, 54.118347%, 78.431702%)" stop-opacity="1"/>
<stop offset="0.789062" stop-color="rgb(15.686035%, 54.510498%, 78.431702%)" stop-opacity="1"/>
<stop offset="0.792969" stop-color="rgb(16.078186%, 54.902649%, 78.823853%)" stop-opacity="1"/>
<stop offset="0.796875" stop-color="rgb(16.470337%, 55.2948%, 79.216003%)" stop-opacity="1"/>
<stop offset="0.800781" stop-color="rgb(15.686035%, 55.686951%, 79.608154%)" stop-opacity="1"/>
<stop offset="0.804688" stop-color="rgb(16.470337%, 56.079102%, 79.608154%)" stop-opacity="1"/>
<stop offset="0.808594" stop-color="rgb(15.686035%, 56.471252%, 80.000305%)" stop-opacity="1"/>
<stop offset="0.8125" stop-color="rgb(16.470337%, 56.863403%, 80.000305%)" stop-opacity="1"/>
<stop offset="0.816406" stop-color="rgb(16.470337%, 57.255554%, 80.784607%)" stop-opacity="1"/>
<stop offset="0.820312" stop-color="rgb(16.078186%, 57.255554%, 80.784607%)" stop-opacity="1"/>
<stop offset="0.824219" stop-color="rgb(16.078186%, 58.039856%, 81.176758%)" stop-opacity="1"/>
<stop offset="0.828125" stop-color="rgb(15.293884%, 58.432007%, 81.568909%)" stop-opacity="1"/>
<stop offset="0.832031" stop-color="rgb(16.078186%, 58.432007%, 81.96106%)" stop-opacity="1"/>
<stop offset="0.835938" stop-color="rgb(15.293884%, 58.824158%, 81.96106%)" stop-opacity="1"/>
<stop offset="0.839844" stop-color="rgb(15.686035%, 59.216309%, 82.35321%)" stop-opacity="1"/>
<stop offset="0.84375" stop-color="rgb(16.078186%, 59.608459%, 82.745361%)" stop-opacity="1"/>
<stop offset="0.847656" stop-color="rgb(15.686035%, 60.00061%, 82.745361%)" stop-opacity="1"/>
<stop offset="0.851562" stop-color="rgb(16.078186%, 60.392761%, 83.137512%)" stop-opacity="1"/>
<stop offset="0.855469" stop-color="rgb(15.293884%, 60.784912%, 83.529663%)" stop-opacity="1"/>
<stop offset="0.859375" stop-color="rgb(15.293884%, 61.177063%, 83.921814%)" stop-opacity="1"/>
<stop offset="0.863281" stop-color="rgb(15.686035%, 61.569214%, 84.313965%)" stop-opacity="1"/>
<stop offset="0.867188" stop-color="rgb(15.293884%, 61.961365%, 84.706116%)" stop-opacity="1"/>
<stop offset="0.871094" stop-color="rgb(15.686035%, 62.353516%, 84.706116%)" stop-opacity="1"/>
<stop offset="0.875" stop-color="rgb(15.293884%, 62.745667%, 85.098267%)" stop-opacity="1"/>
<stop offset="0.878906" stop-color="rgb(15.686035%, 63.137817%, 85.490417%)" stop-opacity="1"/>
<stop offset="0.882812" stop-color="rgb(16.470337%, 63.529968%, 85.490417%)" stop-opacity="1"/>
<stop offset="0.886719" stop-color="rgb(15.686035%, 63.922119%, 85.882568%)" stop-opacity="1"/>
<stop offset="0.890625" stop-color="rgb(15.686035%, 64.31427%, 86.274719%)" stop-opacity="1"/>
<stop offset="0.894531" stop-color="rgb(15.293884%, 64.31427%, 86.274719%)" stop-opacity="1"/>
<stop offset="0.898437" stop-color="rgb(15.293884%, 65.098572%, 87.059021%)" stop-opacity="1"/>
<stop offset="0.902344" stop-color="rgb(14.901733%, 65.098572%, 87.451172%)" stop-opacity="1"/>
<stop offset="0.90625" stop-color="rgb(15.293884%, 65.490723%, 87.843323%)" stop-opacity="1"/>
<stop offset="0.910156" stop-color="rgb(16.078186%, 65.882874%, 87.843323%)" stop-opacity="1"/>
<stop offset="0.914062" stop-color="rgb(14.901733%, 66.275024%, 88.235474%)" stop-opacity="1"/>
<stop offset="0.921875" stop-color="rgb(14.901733%, 66.275024%, 88.235474%)" stop-opacity="1"/>
<stop offset="0.9375" stop-color="rgb(15.686035%, 66.667175%, 88.235474%)" stop-opacity="1"/>
<stop offset="1" stop-color="rgb(15.686035%, 66.667175%, 88.235474%)" stop-opacity="1"/>
</linearGradient>
</defs>
<path fill-rule="nonzero" fill="rgb(16.470337%, 21.960449%, 56.471252%)" fill-opacity="1" d="M 260.40625 193.90625 C 252.800781 193.90625 247.285156 188.101562 247.285156 180.105469 C 247.285156 172.109375 252.800781 166.308594 260.40625 166.308594 C 268.007812 166.308594 273.523438 172.109375 273.523438 180.105469 C 273.523438 188.101562 268.007812 193.90625 260.40625 193.90625 M 260.40625 159.917969 C 249.019531 159.917969 240.105469 168.785156 240.105469 180.105469 C 240.105469 191.425781 249.019531 200.292969 260.40625 200.292969 C 271.789062 200.292969 280.707031 191.425781 280.707031 180.105469 C 280.707031 168.785156 271.789062 159.917969 260.40625 159.917969 "/>
<path fill-rule="nonzero" fill="rgb(16.470337%, 21.960449%, 56.471252%)" fill-opacity="1" d="M 371.167969 163.976562 C 371.167969 162.277344 369.785156 160.894531 368.085938 160.894531 L 348.859375 160.894531 C 347.160156 160.894531 345.777344 162.277344 345.777344 163.976562 L 345.777344 197.171875 C 345.777344 198.871094 347.160156 200.253906 348.859375 200.253906 L 368.074219 200.253906 C 369.773438 200.253906 371.15625 198.871094 371.15625 197.171875 L 371.15625 197.054688 C 371.15625 195.355469 369.773438 193.976562 368.074219 193.976562 L 356.816406 193.976562 C 354.566406 193.976562 352.734375 192.144531 352.734375 189.894531 L 352.734375 188.15625 C 352.734375 185.90625 354.566406 184.074219 356.816406 184.074219 L 368.007812 184.074219 C 369.703125 184.074219 371.085938 182.691406 371.085938 180.992188 C 371.085938 179.296875 369.703125 177.914062 368.007812 177.914062 L 356.816406 177.914062 C 354.566406 177.914062 352.734375 176.082031 352.734375 173.832031 L 352.734375 171.25 C 352.734375 169 354.566406 167.171875 356.816406 167.171875 L 368.085938 167.171875 C 369.785156 167.171875 371.167969 165.789062 371.167969 164.089844 Z M 371.167969 163.976562 "/>
<path fill-rule="nonzero" fill="rgb(16.470337%, 21.960449%, 56.471252%)" fill-opacity="1" d="M 402.039062 171.25 C 402.039062 169 403.871094 167.171875 406.121094 167.171875 L 410.382812 167.171875 C 412.082031 167.171875 413.464844 165.789062 413.464844 164.089844 L 413.464844 163.976562 C 413.464844 162.277344 412.082031 160.894531 410.382812 160.894531 L 386.742188 160.894531 C 385.046875 160.894531 383.664062 162.277344 383.664062 163.976562 L 383.664062 164.089844 C 383.664062 165.789062 385.046875 167.171875 386.742188 167.171875 L 391.003906 167.171875 C 393.253906 167.171875 395.085938 169 395.085938 171.25 L 395.085938 197.171875 C 395.085938 198.871094 396.46875 200.253906 398.167969 200.253906 L 398.960938 200.253906 C 400.65625 200.253906 402.039062 198.871094 402.039062 197.171875 Z M 402.039062 171.25 "/>
<g clip-path="url(#clip-0)">
<g clip-path="url(#clip-1)">
<path fill-rule="nonzero" fill="url(#linear-pattern-0)" d="M 197.636719 235.367188 L 263.28125 168.230469 L 196.105469 102.550781 L 130.460938 169.6875 Z M 197.636719 235.367188 "/>
</g>
</g>
<path fill-rule="nonzero" fill="rgb(94.509888%, 35.293579%, 16.078186%)" fill-opacity="1" d="M 218.039062 180.921875 C 218.34375 180.921875 218.59375 180.675781 218.59375 180.371094 C 218.59375 180.066406 218.34375 179.820312 218.039062 179.820312 C 213.925781 179.820312 210.59375 176.15625 210.59375 171.644531 C 210.59375 171.339844 210.347656 171.089844 210.042969 171.089844 C 209.738281 171.089844 209.492188 171.339844 209.492188 171.644531 C 209.492188 176.15625 206.15625 179.820312 202.046875 179.820312 C 201.742188 179.820312 201.488281 180.066406 201.488281 180.371094 C 201.488281 180.675781 201.742188 180.921875 202.046875 180.921875 C 206.15625 180.921875 209.492188 184.585938 209.492188 189.097656 C 209.492188 189.402344 209.738281 189.65625 210.042969 189.65625 C 210.347656 189.65625 210.59375 189.402344 210.59375 189.097656 C 210.59375 184.585938 213.925781 180.921875 218.039062 180.921875 "/>
<g clip-path="url(#clip-2)">
<g clip-path="url(#clip-3)">
<path fill-rule="nonzero" fill="url(#linear-pattern-1)" d="M 286.800781 348.011719 L 320.238281 313.816406 L 286.019531 280.359375 L 252.585938 314.558594 Z M 286.800781 348.011719 "/>
</g>
</g>
<path fill="none" stroke-width="0.5" stroke-linecap="butt" stroke-linejoin="miter" stroke="rgb(100%, 100%, 100%)" stroke-opacity="1" stroke-miterlimit="10" d="M -0.00104375 -0.001 C 0.5888 0.584938 0.592706 1.534156 0.00676875 2.120094 L -0.118231 2.249 C -0.700263 2.834938 -1.649481 2.838844 -2.239325 2.256813 C -2.825263 1.674781 -2.829169 0.721656 -2.247138 0.135719 L -2.122138 0.0068125 C -1.829169 -0.286156 -1.44245 -0.434594 -1.055731 -0.434594 C -0.676825 -0.434594 -0.294013 -0.290062 -0.00104375 -0.001 Z M 6.827081 2.112281 C 7.416925 2.694313 7.420831 3.647438 6.834894 4.233375 L 6.709894 4.358375 C 6.127862 4.948219 5.178644 4.952125 4.5888 4.370094 C 4.002862 3.784156 3.99505 2.834938 4.580987 2.245094 L 4.705987 2.120094 C 4.998956 1.823219 5.385675 1.678688 5.772394 1.678688 C 6.1513 1.678688 6.534112 1.823219 6.827081 2.112281 Z M 15.698175 1.823219 C 16.284112 2.409156 16.288019 3.358375 15.705987 3.944313 L 15.577081 4.073219 C 14.99505 4.659156 14.045831 4.663063 13.459894 4.081031 C 12.87005 3.499 12.866144 2.545875 13.448175 1.959938 L 13.577081 1.834938 C 13.87005 1.538063 14.256769 1.389625 14.639581 1.389625 C 15.022394 1.389625 15.405206 1.534156 15.698175 1.823219 Z M 29.143487 -10.895531 C 28.663019 -9.137719 27.74505 -7.516625 26.479425 -6.1885 C 26.455987 -6.161156 26.428644 -6.137719 26.405206 -6.110375 C 26.389581 -6.09475 26.37005 -6.075219 26.354425 -6.059594 C 26.3388 -6.043969 26.319269 -6.024437 26.303644 -6.008812 L 19.147394 1.127906 C 18.366144 1.909156 17.100519 1.909156 16.319269 1.127906 C 15.5888 0.393531 15.553644 -0.758812 16.194269 -1.543969 L 16.186456 -1.543969 L 17.491144 -2.852562 C 17.885675 -3.247094 17.885675 -3.883812 17.491144 -4.278344 C 17.295831 -4.473656 17.038019 -4.571312 16.780206 -4.571312 C 16.522394 -4.571312 16.264581 -4.473656 16.069269 -4.278344 L 14.030206 -2.239281 L 14.030206 -2.254906 L 10.346612 1.432594 C 9.561456 2.213844 8.299737 2.213844 7.518487 1.432594 C 6.737237 0.651344 6.737237 -0.606469 7.510675 -1.387719 L 10.440362 -4.321312 C 10.834894 -4.711937 10.834894 -5.348656 10.440362 -5.743187 C 10.24505 -5.9385 9.987237 -6.040062 9.729425 -6.040062 C 9.471612 -6.040062 9.2138 -5.9385 9.018487 -5.743187 L 8.397394 -5.126 L 8.397394 -5.141625 L 3.799737 -0.540062 C 3.018487 0.241188 1.752862 0.241188 0.971612 -0.540062 C 0.190362 -1.321312 0.190362 -2.586937 0.971612 -3.368187 L 8.127862 -10.524437 L 8.123956 -10.53225 L 9.0263 -11.4385 C 9.420831 -11.829125 9.420831 -12.465844 9.0263 -12.860375 C 8.830987 -13.059594 8.573175 -13.15725 8.315362 -13.15725 C 8.05755 -13.15725 7.799737 -13.059594 7.604425 -12.860375 L 5.991144 -11.247094 C 5.205987 -10.59475 4.045831 -10.629906 3.30755 -11.364281 C 2.5263 -12.145531 2.5263 -13.411156 3.30755 -14.192406 L 10.7138 -21.602562 C 10.729425 -21.614281 10.748956 -21.629906 10.764581 -21.645531 C 10.780206 -21.661156 10.795831 -21.684594 10.815362 -21.700219 C 10.850519 -21.735375 10.889581 -21.762719 10.928644 -21.793969 C 12.983331 -23.747094 15.663019 -24.829125 18.510675 -24.833031 L 18.514581 -24.833031 C 21.455987 -24.833031 24.225519 -23.684594 26.30755 -21.602562 C 27.0888 -20.821312 27.0888 -19.555687 26.30755 -18.774437 C 25.5263 -17.993187 24.260675 -17.993187 23.479425 -18.774437 C 22.1513 -20.102562 20.389581 -20.833031 18.514581 -20.833031 L 18.510675 -20.833031 C 16.655206 -20.829125 14.913019 -20.114281 13.592706 -18.817406 C 10.905206 -16.071312 10.920831 -11.65725 13.639581 -8.9385 C 16.362237 -6.215844 20.780206 -6.200219 23.5263 -8.891625 C 24.362237 -9.743187 24.971612 -10.801781 25.288019 -11.950219 C 25.577081 -13.016625 26.68255 -13.645531 27.741144 -13.352562 C 28.80755 -13.059594 29.436456 -11.961937 29.143487 -10.895531 Z M 2.55755 -10.868187 C 3.143487 -10.28225 3.143487 -9.333031 2.55755 -8.747094 L 0.885675 -7.075219 C 0.299737 -6.489281 -0.649481 -6.489281 -1.235419 -7.075219 C -1.821356 -7.661156 -1.821356 -8.610375 -1.235419 -9.196312 L 0.436456 -10.868187 C 0.729425 -11.161156 1.112237 -11.305687 1.49505 -11.305687 C 1.881769 -11.305687 2.264581 -11.161156 2.55755 -10.868187 Z M -2.020575 -6.571312 C -1.575263 -6.247094 -1.497138 -5.59475 -1.821356 -5.149437 C -2.145575 -4.704125 -2.770575 -4.606469 -3.219794 -4.930687 C -3.665106 -5.254906 -3.762763 -5.879906 -3.438544 -6.329125 L -3.399481 -6.379906 C -3.208075 -6.641625 -2.922919 -6.774437 -2.62995 -6.774437 C -2.419013 -6.774437 -2.208075 -6.708031 -2.020575 -6.571312 Z M -4.00495 -4.485375 C -3.669013 -4.243187 -3.610419 -3.754906 -3.856513 -3.418969 C -4.0987 -3.086937 -4.56745 -3.012719 -4.903388 -3.254906 C -5.235419 -3.501 -5.313544 -3.96975 -5.06745 -4.301781 L -5.0362 -4.340844 C -4.895575 -4.540062 -4.680731 -4.637719 -4.458075 -4.637719 C -4.301825 -4.637719 -4.145575 -4.586937 -4.00495 -4.485375 Z M 10.428644 6.706031 C 10.764581 6.952125 10.823175 7.440406 10.577081 7.772438 C 10.334894 8.108375 9.866144 8.182594 9.530206 7.9365 C 9.194269 7.694313 9.12005 7.225563 9.366144 6.889625 L 9.393487 6.850563 C 9.538019 6.65525 9.752862 6.553688 9.975519 6.553688 C 10.131769 6.553688 10.288019 6.604469 10.428644 6.706031 Z M 12.018487 4.327125 C 11.721612 4.327125 11.436456 4.459938 11.24505 4.721656 L 11.205987 4.772438 C 10.881769 5.21775 10.979425 5.84275 11.424737 6.170875 C 11.87005 6.495094 12.498956 6.397438 12.823175 5.948219 C 13.147394 5.502906 13.069269 4.854469 12.623956 4.526344 C 12.436456 4.393531 12.225519 4.327125 12.018487 4.327125 Z M 12.018487 4.327125 " transform="matrix(1, 0, 0, -1, 274.3487, 305.8115)"/>
<path fill-rule="nonzero" fill="rgb(94.509888%, 35.293579%, 16.078186%)" fill-opacity="1" d="M 296.957031 320.167969 C 297.109375 320.167969 297.234375 320.046875 297.234375 319.894531 C 297.234375 319.742188 297.109375 319.617188 296.957031 319.617188 C 294.902344 319.617188 293.234375 317.785156 293.234375 315.53125 C 293.234375 315.378906 293.113281 315.253906 292.960938 315.253906 C 292.808594 315.253906 292.683594 315.378906 292.683594 315.53125 C 292.683594 317.785156 291.019531 319.617188 288.964844 319.617188 C 288.808594 319.617188 288.683594 319.742188 288.683594 319.894531 C 288.683594 320.046875 288.808594 320.167969 288.964844 320.167969 C 291.019531 320.167969 292.683594 322 292.683594 324.257812 C 292.683594 324.410156 292.808594 324.535156 292.960938 324.535156 C 293.113281 324.535156 293.234375 324.410156 293.234375 324.257812 C 293.234375 322 294.902344 320.167969 296.957031 320.167969 "/>
<path fill-rule="nonzero" fill="rgb(16.470337%, 21.960449%, 56.471252%)" fill-opacity="1" d="M 330.070312 160.769531 L 330.035156 160.769531 C 329.726562 160.769531 329.449219 160.90625 329.265625 161.125 L 329.257812 161.121094 L 313.324219 179.730469 C 312.9375 180.179688 312.378906 180.4375 311.785156 180.441406 L 311.78125 180.441406 C 311.191406 180.441406 310.632812 180.1875 310.246094 179.742188 L 294.105469 161.121094 L 294.101562 161.125 C 293.917969 160.90625 293.640625 160.769531 293.332031 160.769531 L 293.296875 160.769531 C 292.738281 160.769531 292.28125 161.222656 292.28125 161.785156 L 292.28125 161.78125 L 292.28125 197 C 292.296875 198.78125 293.746094 200.222656 295.527344 200.222656 L 295.644531 200.222656 C 297.4375 200.222656 298.894531 198.765625 298.894531 196.976562 L 298.898438 196.976562 L 298.898438 181.710938 C 298.898438 180.847656 299.425781 180.097656 300.238281 179.804688 C 301.050781 179.507812 301.933594 179.746094 302.488281 180.410156 L 309.789062 189.164062 C 310.21875 189.691406 310.878906 190.03125 311.609375 190.03125 L 311.695312 190.03125 C 312.390625 190.03125 313.023438 189.726562 313.453125 189.242188 L 320.871094 180.386719 C 321.269531 179.914062 321.832031 179.65625 322.417969 179.65625 C 322.652344 179.65625 322.890625 179.699219 323.121094 179.78125 C 323.933594 180.078125 324.457031 180.828125 324.457031 181.691406 L 324.457031 196.976562 L 324.46875 196.976562 C 324.46875 198.765625 325.925781 200.222656 327.71875 200.222656 L 327.839844 200.222656 C 329.589844 200.222656 331.015625 198.824219 331.074219 197.085938 L 331.074219 161.726562 C 331.042969 161.195312 330.609375 160.769531 330.070312 160.769531 "/>
<g clip-path="url(#clip-4)">
<g clip-path="url(#clip-5)">
<path fill-rule="nonzero" fill="url(#linear-pattern-2)" d="M 197.636719 603.644531 L 263.28125 536.507812 L 196.105469 470.828125 L 130.460938 537.964844 Z M 197.636719 603.644531 "/>
</g>
</g>
<path fill-rule="nonzero" fill="rgb(16.470337%, 21.960449%, 56.471252%)" fill-opacity="1" d="M 331.074219 530.007812 L 331.074219 556.386719 C 331.015625 558.125 329.589844 559.527344 327.839844 559.527344 L 327.71875 559.527344 C 325.929688 559.527344 324.46875 558.070312 324.46875 556.277344 L 324.457031 556.277344 L 324.457031 549.96875 C 324.457031 549.105469 323.933594 548.359375 323.121094 548.0625 C 322.890625 547.980469 322.652344 547.9375 322.417969 547.9375 C 321.832031 547.9375 321.269531 548.195312 320.871094 548.667969 L 313.453125 557.523438 C 313.023438 558.007812 312.390625 558.3125 311.695312 558.3125 L 311.609375 558.3125 C 310.878906 558.3125 310.21875 557.972656 309.789062 557.445312 L 302.484375 548.691406 C 301.933594 548.027344 301.050781 547.789062 300.234375 548.082031 C 299.425781 548.378906 298.898438 549.125 298.898438 549.992188 L 298.898438 565.257812 L 298.894531 565.253906 C 298.894531 567.046875 297.4375 568.503906 295.644531 568.503906 L 295.527344 568.503906 C 293.746094 568.503906 292.296875 567.058594 292.28125 565.28125 L 292.28125 530.0625 C 292.28125 529.503906 292.738281 529.050781 293.296875 529.050781 L 293.332031 529.050781 C 293.640625 529.050781 293.917969 529.1875 294.101562 529.40625 L 294.105469 529.402344 L 310.246094 548.023438 C 310.632812 548.464844 311.191406 548.722656 311.78125 548.722656 L 311.785156 548.722656 C 312.378906 548.71875 312.9375 548.460938 313.324219 548.011719 L 329.261719 529.402344 L 329.265625 529.40625 C 329.449219 529.1875 329.726562 529.050781 330.035156 529.050781 L 330.070312 529.050781 C 330.609375 529.050781 331.042969 529.476562 331.074219 530.007812 M 402.039062 556.8125 C 402.039062 558.511719 400.660156 559.894531 398.960938 559.894531 L 398.167969 559.894531 C 396.46875 559.894531 395.085938 558.511719 395.085938 556.8125 L 395.085938 539.53125 C 395.085938 537.28125 393.253906 535.449219 391.003906 535.449219 L 386.746094 535.449219 C 385.046875 535.449219 383.664062 534.066406 383.664062 532.367188 L 383.664062 532.253906 C 383.664062 530.558594 385.046875 529.175781 386.746094 529.175781 L 410.382812 529.175781 C 412.082031 529.175781 413.464844 530.558594 413.464844 532.253906 L 413.464844 532.367188 C 413.464844 534.066406 412.082031 535.449219 410.382812 535.449219 L 406.121094 535.449219 C 403.871094 535.449219 402.039062 537.28125 402.039062 539.53125 Z M 371.886719 532.367188 C 371.886719 534.066406 370.507812 535.449219 368.804688 535.449219 L 357.535156 535.449219 C 355.285156 535.449219 353.453125 537.28125 353.453125 539.53125 L 353.453125 542.113281 C 353.453125 544.363281 355.285156 544.753906 357.535156 544.753906 L 360.539062 544.753906 C 362.238281 544.753906 363.621094 546.136719 363.621094 547.832031 C 363.621094 549.53125 362.238281 550.914062 360.539062 550.914062 L 357.535156 550.914062 C 355.285156 550.914062 353.453125 552.746094 353.453125 554.996094 L 353.453125 558.171875 C 353.453125 560.421875 355.285156 562.253906 357.535156 562.253906 L 368.796875 562.253906 C 370.496094 562.253906 371.875 563.636719 371.875 565.335938 L 371.875 565.449219 C 371.875 567.152344 370.496094 568.53125 368.796875 568.53125 L 349.578125 568.53125 C 347.878906 568.53125 346.5 567.152344 346.5 565.449219 L 346.5 532.253906 C 346.5 530.558594 347.878906 529.175781 349.578125 529.175781 L 368.804688 529.175781 C 370.507812 529.175781 371.886719 530.558594 371.886719 532.253906 Z M 260.40625 562.183594 C 252.804688 562.183594 247.285156 556.378906 247.285156 548.386719 C 247.285156 540.390625 252.804688 534.585938 260.40625 534.585938 C 268.007812 534.585938 273.523438 540.390625 273.523438 548.386719 C 273.523438 556.378906 268.007812 562.183594 260.40625 562.183594 M 260.40625 528.199219 C 249.019531 528.199219 240.105469 537.066406 240.105469 548.386719 C 240.105469 559.703125 249.019531 568.570312 260.40625 568.570312 C 271.789062 568.570312 280.707031 559.703125 280.707031 548.386719 C 280.707031 537.066406 271.789062 528.199219 260.40625 528.199219 "/>
<path fill-rule="nonzero" fill="rgb(16.470337%, 21.960449%, 56.471252%)" fill-opacity="1" d="M 330.941406 565.445312 C 330.941406 567.3125 329.429688 568.824219 327.5625 568.824219 C 325.699219 568.824219 324.183594 567.3125 324.183594 565.445312 C 324.183594 563.578125 325.699219 562.066406 327.5625 562.066406 C 329.429688 562.066406 330.941406 563.578125 330.941406 565.445312 "/>
<path fill-rule="nonzero" fill="rgb(16.470337%, 21.960449%, 56.471252%)" fill-opacity="1" d="M 401.863281 565.445312 C 401.863281 567.3125 400.351562 568.824219 398.484375 568.824219 C 396.621094 568.824219 395.105469 567.3125 395.105469 565.445312 C 395.105469 563.578125 396.621094 562.066406 398.484375 562.066406 C 400.351562 562.066406 401.863281 563.578125 401.863281 565.445312 "/>
<path fill-rule="nonzero" fill="rgb(16.470337%, 21.960449%, 56.471252%)" fill-opacity="1" d="M 372.523438 547.828125 C 372.523438 549.695312 371.011719 551.207031 369.144531 551.207031 C 367.277344 551.207031 365.765625 549.695312 365.765625 547.828125 C 365.765625 545.964844 367.277344 544.449219 369.144531 544.449219 C 371.011719 544.449219 372.523438 545.964844 372.523438 547.828125 "/>
<path fill-rule="nonzero" fill="rgb(16.470337%, 21.960449%, 56.471252%)" fill-opacity="1" d="M 263.585938 547.828125 C 263.585938 549.695312 262.074219 551.207031 260.207031 551.207031 C 258.34375 551.207031 256.828125 549.695312 256.828125 547.828125 C 256.828125 545.964844 258.34375 544.449219 260.207031 544.449219 C 262.074219 544.449219 263.585938 545.964844 263.585938 547.828125 "/>
<path fill-rule="nonzero" fill="rgb(16.470337%, 21.960449%, 56.471252%)" fill-opacity="1" d="M 213.78125 547.828125 C 213.78125 549.695312 212.269531 551.207031 210.40625 551.207031 C 208.539062 551.207031 207.023438 549.695312 207.023438 547.828125 C 207.023438 545.964844 208.539062 544.449219 210.40625 544.449219 C 212.269531 544.449219 213.78125 545.964844 213.78125 547.828125 "/>
</svg>
