<svg xmlns="http://www.w3.org/2000/svg" viewBox="0 0 24 24" fill="#000000">
  <path d="M12 15.5c1.9 0 3.5-1.6 3.5-3.5s-1.6-3.5-3.5-3.5-3.5 1.6-3.5 3.5 1.6 3.5 3.5 3.5zm7.4-3.8l1.5 1.2c0.1 0.1 0.2 0.3 0.1 0.4l-1.5 2.6c-0.1 0.2-0.3 0.2-0.4 0.1l-1.8-0.7c-0.4 0.3-0.8 0.5-1.2 0.7l-0.3 1.9c0 0.2-0.2 0.3-0.4 0.3h-3c-0.2 0-0.4-0.1-0.4-0.3L11.1 15c-0.4-0.2-0.8-0.4-1.2-0.7l-1.8 0.7c-0.2 0.1-0.4 0-0.4-0.1l-1.5-2.6c-0.1-0.2 0-0.4 0.1-0.4l1.5-1.2c0-0.2 0-0.4 0-0.7s0-0.5 0-0.7L4.3 8.1c-0.1-0.1-0.2-0.3-0.1-0.4l1.5-2.6c0.1-0.2 0.3-0.2 0.4-0.1L8 5.7c0.4-0.3 0.8-0.5 1.2-0.7L9.5 3.1c0-0.2 0.2-0.3 0.4-0.3h3c0.2 0 0.4 0.1 0.4 0.3L13.6 5c0.4 0.2 0.8 0.4 1.2 0.7l1.8-0.7c0.2-0.1 0.4 0 0.4 0.1l1.5 2.6c0.1 0.2 0 0.4-0.1 0.4l-1.5 1.2c0 0.2 0 0.4 0 0.7s0 0.5 0 0.7z"/>
</svg>