<svg width="432" height="145" viewBox="0 0 432 145" fill="none" xmlns="http://www.w3.org/2000/svg">
<path d="M81.0168 68.1308C75.9701 73.6486 69.5776 78.8804 54.185 78.8804C39.6504 78.8804 25.9065 67.7776 25.9065 51.3252C25.846 47.6006 26.5299 43.9014 27.9182 40.4446C29.3065 36.9878 31.3712 33.8431 33.9911 31.195C36.611 28.5469 39.7334 26.4486 43.1752 25.0234C46.6169 23.5982 50.3086 22.8747 54.0336 22.8953C58.8941 22.9158 63.7029 23.8935 68.1855 25.7725C72.6681 27.6516 76.7367 30.3952 80.1589 33.8467L74.3719 38.7925C68.8519 33.6667 61.6327 30.761 54.1009 30.6336C51.3844 30.5966 48.6883 31.1082 46.1742 32.1379C43.6601 33.1677 41.3797 34.6943 39.4696 36.6263C37.5596 38.5583 36.0592 40.8561 35.0583 43.3818C34.0574 45.9075 33.5767 48.6093 33.6448 51.3252C33.6448 60.914 41.3663 71.1421 56.0355 71.1421C67.4916 71.1421 73.514 65.3551 75.8691 62.5626L81.0168 68.1308Z" fill="url(#paint0_linear_21_145)"/>
<path d="M204.09 40.1551H203.955V77.7196H196.217V24.0392H203.955L222.275 57.3981L240.561 24.0392H248.299V77.7196H240.561V40.1551H240.426L222.275 73.1439L204.09 40.1551Z" fill="url(#paint1_linear_21_145)"/>
<path d="M327.079 24.0392V31.7776H290.86V45.8748H309.112V53.5963H290.86V69.9981H328.424V77.7196H283.122V24.0392H327.079Z" fill="url(#paint2_linear_21_145)"/>
<path d="M398.877 24.0392V31.7776H380.052V77.7196H372.314V31.7776H353.49V24.0392H398.877Z" fill="url(#paint3_linear_21_145)"/>
<path d="M130.727 99.8747C130.73 100.644 130.505 101.397 130.08 102.038C129.655 102.68 129.05 103.18 128.34 103.477C127.63 103.774 126.848 103.853 126.093 103.705C125.338 103.557 124.644 103.188 124.099 102.645C123.554 102.103 123.182 101.41 123.031 100.656C122.88 99.9016 122.956 99.1194 123.249 98.4084C123.543 97.6973 124.041 97.0894 124.68 96.6617C125.32 96.2339 126.072 96.0056 126.841 96.0056C127.869 96.0056 128.855 96.4127 129.583 97.1378C130.311 97.8629 130.723 98.847 130.727 99.8747ZM122.316 105.359C121.837 105.359 121.368 105.501 120.97 105.767C120.572 106.033 120.261 106.412 120.078 106.854C119.895 107.297 119.847 107.784 119.94 108.254C120.033 108.724 120.264 109.155 120.603 109.494C120.942 109.833 121.373 110.064 121.843 110.157C122.313 110.251 122.8 110.203 123.243 110.019C123.686 109.836 124.064 109.525 124.33 109.127C124.596 108.729 124.738 108.26 124.738 107.781C124.741 107.458 124.678 107.138 124.554 106.84C124.43 106.541 124.247 106.271 124.016 106.045C123.785 105.819 123.511 105.642 123.211 105.524C122.91 105.406 122.588 105.35 122.265 105.359H122.316ZM140.299 97.6542C139.503 97.6509 138.724 97.8838 138.061 98.3236C137.397 98.7633 136.879 99.3901 136.573 100.124C136.266 100.859 136.184 101.668 136.337 102.449C136.49 103.23 136.872 103.948 137.433 104.512C137.995 105.076 138.711 105.46 139.492 105.617C140.272 105.773 141.081 105.695 141.817 105.391C142.553 105.087 143.182 104.572 143.624 103.91C144.067 103.249 144.303 102.471 144.303 101.675C144.305 101.143 144.202 100.617 143.998 100.126C143.795 99.6346 143.496 99.189 143.118 98.8148C142.741 98.4405 142.293 98.1452 141.8 97.9459C141.307 97.7467 140.78 97.6475 140.249 97.6542H140.299ZM141.241 46.8505C140.445 46.8471 139.666 47.0801 139.003 47.5198C138.339 47.9596 137.822 48.5864 137.515 49.3207C137.208 50.0551 137.126 50.864 137.279 51.645C137.432 52.426 137.814 53.144 138.375 53.708C138.937 54.272 139.653 54.6565 140.434 54.8131C141.214 54.9696 142.023 54.8909 142.759 54.5871C143.495 54.2833 144.124 53.768 144.566 53.1065C145.009 52.4449 145.245 51.6669 145.245 50.871C145.245 50.3402 145.14 49.8146 144.936 49.3246C144.731 48.8346 144.432 48.3899 144.055 48.0161C143.678 47.6423 143.231 47.3469 142.74 47.1468C142.248 46.9467 141.721 46.846 141.191 46.8505H141.241ZM135.521 107.31C135.023 107.294 134.53 107.426 134.107 107.691C133.684 107.956 133.349 108.342 133.147 108.798C132.944 109.254 132.882 109.761 132.969 110.252C133.056 110.744 133.288 111.198 133.635 111.557C133.982 111.916 134.428 112.164 134.917 112.267C135.405 112.371 135.913 112.326 136.376 112.14C136.839 111.953 137.236 111.632 137.515 111.218C137.794 110.804 137.944 110.316 137.944 109.817C137.944 109.166 137.692 108.541 137.24 108.073C136.788 107.606 136.172 107.332 135.521 107.31ZM108.942 102.146C108.171 102.146 107.418 102.375 106.778 102.804C106.138 103.234 105.64 103.844 105.347 104.557C105.055 105.27 104.981 106.053 105.135 106.809C105.289 107.564 105.664 108.256 106.213 108.797C106.761 109.339 107.458 109.705 108.215 109.849C108.972 109.993 109.755 109.909 110.464 109.607C111.174 109.305 111.777 108.799 112.198 108.154C112.619 107.508 112.838 106.752 112.828 105.981C112.815 104.959 112.4 103.984 111.672 103.266C110.945 102.548 109.964 102.146 108.942 102.146ZM104.299 111.499C103.82 111.499 103.352 111.641 102.953 111.907C102.555 112.173 102.244 112.552 102.061 112.994C101.878 113.437 101.83 113.924 101.923 114.394C102.017 114.864 102.247 115.296 102.586 115.634C102.925 115.973 103.357 116.204 103.826 116.297C104.296 116.391 104.783 116.343 105.226 116.16C105.669 115.976 106.047 115.666 106.313 115.267C106.579 114.869 106.721 114.401 106.721 113.921C106.721 113.279 106.466 112.663 106.012 112.209C105.558 111.754 104.942 111.499 104.299 111.499ZM102.785 88.2C102.016 88.2 101.265 88.4279 100.626 88.8549C99.9871 89.2819 99.489 89.8888 99.1949 90.5989C98.9008 91.3089 98.8238 92.0903 98.9737 92.8441C99.1237 93.5979 99.4938 94.2903 100.037 94.8338C100.581 95.3772 101.273 95.7473 102.027 95.8973C102.781 96.0472 103.562 95.9703 104.272 95.6761C104.982 95.382 105.589 94.8839 106.016 94.2449C106.443 93.6059 106.671 92.8545 106.671 92.086C106.676 91.0656 106.277 90.0847 105.562 89.3569C104.846 88.6291 103.873 88.2133 102.852 88.2H102.785ZM98.2766 97.5701C97.7975 97.5701 97.3292 97.7122 96.9308 97.9783C96.5324 98.2445 96.222 98.6228 96.0386 99.0655C95.8553 99.5081 95.8073 99.9952 95.9008 100.465C95.9942 100.935 96.2249 101.367 96.5637 101.705C96.9025 102.044 97.3341 102.275 97.804 102.368C98.2739 102.462 98.761 102.414 99.2037 102.231C99.6463 102.047 100.025 101.737 100.291 101.338C100.557 100.94 100.699 100.472 100.699 99.9925C100.701 99.6738 100.64 99.3578 100.519 99.0629C100.398 98.7679 100.22 98.5 99.9945 98.2746C99.7691 98.0492 99.5012 97.8709 99.2063 97.7499C98.9114 97.629 98.5954 97.5678 98.2766 97.5701ZM98.529 70.8392C97.7604 70.8392 97.0091 71.0672 96.37 71.4941C95.731 71.9211 95.2329 72.5281 94.9388 73.2381C94.6447 73.9482 94.5677 74.7295 94.7177 75.4833C94.8676 76.2371 95.2377 76.9296 95.7812 77.473C96.3246 78.0165 97.0171 78.3866 97.7709 78.5365C98.5247 78.6865 99.306 78.6095 100.016 78.3154C100.726 78.0213 101.333 77.5232 101.76 76.8842C102.187 76.2451 102.415 75.4938 102.415 74.7252C102.417 74.2135 102.318 73.7064 102.124 73.233C101.93 72.7595 101.644 72.3292 101.283 71.9665C100.922 71.6039 100.493 71.3162 100.02 71.1198C99.5474 70.9235 99.0407 70.8224 98.529 70.8224V70.8392ZM93.9365 80.2093C93.4533 80.2093 92.981 80.3528 92.5795 80.6216C92.1781 80.8904 91.8654 81.2724 91.6813 81.719C91.4972 82.1657 91.4499 82.6571 91.5454 83.1307C91.6409 83.6043 91.8749 84.0389 92.2177 84.3794C92.5605 84.7198 92.9967 84.9508 93.471 85.043C93.9452 85.1352 94.4362 85.0845 94.8816 84.8973C95.327 84.7101 95.7068 84.3948 95.9728 83.9915C96.2388 83.5882 96.379 83.1149 96.3757 82.6318C96.3779 82.3108 96.3164 81.9926 96.1946 81.6957C96.0728 81.3987 95.8932 81.1289 95.6662 80.902C95.4393 80.675 95.1695 80.4954 94.8726 80.3736C94.5756 80.2518 94.2574 80.1903 93.9365 80.1925V80.2093ZM169.907 50.8878C169.954 55.8341 168.689 60.7044 166.239 65.0019L149.417 93.9364C148.87 94.8164 148.003 95.4501 146.998 95.7041C145.994 95.9582 144.93 95.8129 144.03 95.2988C143.131 94.7847 142.465 93.9419 142.174 92.9474C141.883 91.953 141.989 90.8844 142.469 89.9663L147.079 82.0262C147.251 81.766 147.368 81.4733 147.422 81.1663C147.477 80.8592 147.469 80.5441 147.397 80.2405C147.326 79.9368 147.193 79.651 147.007 79.4005C146.821 79.1501 146.586 78.9403 146.316 78.784C146.046 78.6278 145.747 78.5284 145.437 78.492C145.128 78.4555 144.814 78.4829 144.515 78.5722C144.216 78.6616 143.938 78.8112 143.699 79.0117C143.461 79.2122 143.265 79.4595 143.125 79.7383L135.538 92.7252C135.196 93.3151 134.705 93.8054 134.115 94.1477C133.525 94.4899 132.856 94.6722 132.174 94.6766C131.476 94.7065 130.783 94.5435 130.172 94.2056C129.282 93.6855 128.635 92.8348 128.37 91.8389C128.105 90.843 128.245 89.7829 128.759 88.8897L132.123 83.086L133.368 80.9327C133.63 80.4114 133.682 79.81 133.515 79.2513C133.348 78.6926 132.974 78.2188 132.469 77.9267C131.965 77.6346 131.367 77.5462 130.8 77.6797C130.232 77.8132 129.737 78.1584 129.415 78.6448L117.639 99.0168C117.296 99.6047 116.805 100.093 116.215 100.432C115.624 100.771 114.956 100.95 114.275 100.951C113.59 100.949 112.918 100.77 112.323 100.43C111.518 99.9662 110.906 99.2293 110.597 98.3528C110.288 97.4763 110.304 96.5183 110.641 95.6523L122.585 75.129C122.847 74.6077 122.899 74.0063 122.732 73.4476C122.565 72.8889 122.191 72.415 121.686 72.1229C121.181 71.8308 120.584 71.7425 120.016 71.876C119.449 72.0095 118.953 72.3547 118.632 72.8411L111.533 84.8691C111.296 85.3488 110.963 85.7746 110.554 86.12C110.146 86.4655 109.67 86.7233 109.158 86.8774C108.646 87.0315 108.107 87.0786 107.576 87.0158C107.044 86.953 106.532 86.7816 106.069 86.5124C105.607 86.2431 105.205 85.8816 104.888 85.4504C104.572 85.0192 104.347 84.5275 104.228 84.0059C104.11 83.4842 104.099 82.9437 104.198 82.4179C104.297 81.8921 104.503 81.3923 104.804 80.9495L114.393 64.2953C114.544 64.0357 114.643 63.7489 114.683 63.4512C114.724 63.1535 114.705 62.8507 114.628 62.5601C114.552 62.2696 114.419 61.9969 114.237 61.7578C114.055 61.5186 113.828 61.3177 113.568 61.1663C113.044 60.8607 112.42 60.7759 111.833 60.9305C111.246 61.085 110.745 61.4664 110.439 61.9906L107.664 66.7009C107.303 67.1773 106.838 67.5646 106.304 67.8329C105.771 68.1012 105.182 68.2434 104.585 68.2486C103.893 68.2437 103.215 68.0581 102.617 67.7103C102.172 67.4527 101.782 67.1098 101.47 66.7012C101.158 66.2925 100.93 65.8263 100.798 65.3292C100.667 64.8321 100.635 64.3139 100.705 63.8045C100.774 63.2951 100.944 62.8044 101.204 62.3607C101.204 62.3607 116.781 35.6131 116.933 35.4448C119.619 31.5183 123.235 28.3174 127.459 26.1278C131.683 23.9381 136.383 22.8276 141.14 22.8953C156.533 22.8953 169.907 33.9981 169.907 50.8878ZM162.185 50.8878C162.185 39.785 153.303 30.7009 141.14 30.7009C128.978 30.7009 120.095 39.8523 120.095 50.8878C120.399 56.2591 122.747 61.3105 126.657 65.0056C130.568 68.7008 135.743 70.7595 141.123 70.7595C146.503 70.7595 151.679 68.7008 155.589 65.0056C159.5 61.3105 161.847 56.2591 162.151 50.8878H162.185Z" fill="url(#paint4_linear_21_145)"/>
<defs>
<linearGradient id="paint0_linear_21_145" x1="53.4617" y1="78.8804" x2="53.4617" y2="22.8953" gradientUnits="userSpaceOnUse">
<stop offset="0.2" stop-color="#2B3990"/>
<stop offset="0.9" stop-color="#27AAE1"/>
</linearGradient>
<linearGradient id="paint1_linear_21_145" x1="247.609" y1="7.68784" x2="205.923" y2="78.7458" gradientUnits="userSpaceOnUse">
<stop offset="0.31" stop-color="#662D91"/>
<stop offset="1" stop-color="#EE2A7B"/>
</linearGradient>
<linearGradient id="paint2_linear_21_145" x1="324.202" y1="6.9813" x2="292.004" y2="83.7084" gradientUnits="userSpaceOnUse">
<stop offset="0.2" stop-color="#009444"/>
<stop offset="0.9" stop-color="#8DC63F"/>
</linearGradient>
<linearGradient id="paint3_linear_21_145" x1="384.729" y1="10.7327" x2="352.531" y2="82.7159" gradientUnits="userSpaceOnUse">
<stop offset="0.18" stop-color="#FDB913"/>
<stop offset="0.19" stop-color="#FCB413"/>
<stop offset="0.31" stop-color="#EF7D18"/>
<stop offset="0.43" stop-color="#E5521B"/>
<stop offset="0.53" stop-color="#DD331E"/>
<stop offset="0.62" stop-color="#D9201F"/>
<stop offset="0.68" stop-color="#D71920"/>
</linearGradient>
<linearGradient id="paint4_linear_21_145" x1="92.4393" y1="124.15" x2="156.852" y2="31.3065" gradientUnits="userSpaceOnUse">
<stop offset="0.39" stop-color="#FFCB05"/>
<stop offset="0.72" stop-color="#F15A22"/>
</linearGradient>
</defs>
</svg>
